<?xml version="1.0" encoding="UTF-8"?>
<svg xmlns="http://www.w3.org/2000/svg" xmlns:xlink="http://www.w3.org/1999/xlink" width="1230pt" height="411.41pt" viewBox="0 0 1230 411.41" version="1.1">
<g id="surface1">
<path style=" stroke:none;fill-rule:nonzero;fill:rgb(96.099854%,52.198792%,19.599915%);fill-opacity:1;" d="M 117.660156 21.101563 C 110.371094 29.453125 102.191406 36.953125 94.488281 44.902344 C 67.300781 72.042969 40.199219 99.261719 13.019531 126.402344 C 11.46875 128.152344 9.121094 129.773438 9.417969 132.421875 C 9.378906 182.113281 9.441406 231.800781 9.398438 281.480469 C 9.488281 282.730469 9.320313 284.203125 10.289063 285.183594 C 14.101563 289.722656 18.667969 293.542969 23.089844 297.472656 C 28.199219 302.320313 33.101563 307.410156 37.589844 312.851563 C 43.261719 318.8125 49.949219 323.75 55.261719 330.082031 C 62.351563 338.691406 71.71875 345.070313 78.679688 353.800781 C 91.441406 366.972656 104.679688 379.703125 117.441406 392.882813 C 168.289063 393.0625 219.160156 392.921875 270.019531 392.960938 C 272.921875 393.351563 274.578125 390.652344 276.320313 388.832031 C 280.960938 383.121094 286.371094 378.140625 291.550781 372.941406 C 319.078125 345.160156 346.71875 317.480469 374.53125 289.972656 C 376.859375 287.421875 381.058594 285.511719 380.539063 281.480469 C 380.519531 231.09375 380.621094 180.691406 380.488281 130.300781 C 367.160156 117.511719 354.289063 104.261719 341.039063 91.382813 C 330.398438 80.363281 319.039063 70.023438 308.921875 58.503906 C 302.878906 52.210938 295.898438 46.871094 290.238281 40.210938 C 285.351563 34.433594 279.519531 29.5625 274.398438 24.003906 C 273.070313 22.8125 271.859375 20.921875 269.851563 21.101563 C 219.121094 21.082031 168.390625 21.082031 117.660156 21.101563 Z M 112.808594 17.253906 C 114.328125 15.472656 116.710938 15.042969 118.941406 15.113281 C 169.648438 15.183594 220.359375 15.082031 271.070313 15.160156 C 275.980469 15.042969 278.441406 19.953125 281.609375 22.871094 C 303.570313 44.570313 325.019531 66.800781 347.210938 88.273438 C 351.5 92.980469 356.390625 97.09375 360.671875 101.8125 C 364.058594 105.550781 368.25 108.523438 371.210938 112.660156 L 372.378906 112.28125 L 371.558594 114.011719 L 372.730469 113.511719 C 377.488281 118.453125 382.589844 123.050781 387.441406 127.910156 C 387.359375 180.863281 387.480469 233.820313 387.378906 286.773438 C 370.410156 302.441406 354.5 319.210938 338.050781 335.421875 C 329.460938 343.171875 321.921875 351.992188 313.578125 360 C 307.980469 365.402344 302.910156 371.320313 297.28125 376.691406 C 291.28125 383.011719 284.519531 388.582031 278.640625 395.03125 C 276.71875 396.78125 275.011719 399.570313 272.019531 399.113281 C 226.011719 399.09375 180.011719 399.101563 134 399.101563 C 127.550781 398.863281 121.019531 399.601563 114.621094 398.761719 C 103.289063 388.132813 92.601563 376.800781 81.511719 365.910156 C 66.539063 350.902344 51.46875 335.992188 36.691406 320.792969 C 29.539063 312.613281 21.519531 305.253906 14.160156 297.273438 C 10.832031 293.242188 5.410156 290.492188 3.640625 285.472656 C 3.488281 233.773438 3.648438 182.050781 3.558594 130.351563 C 3.269531 128.023438 4.289063 125.890625 6.011719 124.382813 C 13.398438 117.121094 20.761719 109.820313 27.929688 102.351563 C 37.519531 92.613281 47.441406 83.191406 56.800781 73.222656 C 61.167969 67.921875 66.398438 63.472656 71.449219 58.851563 C 85.121094 44.871094 99.160156 31.261719 112.808594 17.253906 "/>
<path style=" stroke:none;fill-rule:nonzero;fill:rgb(96.099854%,52.198792%,19.599915%);fill-opacity:1;" d="M 133.101563 57.011719 C 128.320313 59.921875 124.878906 64.511719 120.878906 68.351563 C 97.832031 91.621094 74.648438 114.761719 51.480469 137.910156 C 49.199219 140.242188 46.660156 142.351563 44.71875 144.980469 C 44.199219 148.101563 44.539063 151.28125 44.46875 154.421875 C 44.488281 191.761719 44.5 229.113281 44.46875 266.453125 C 44.371094 268.003906 44.789063 269.511719 45.917969 270.632813 C 58.28125 283.550781 72.03125 295.070313 84.230469 308.171875 C 91.582031 315.160156 98.210938 322.882813 105.808594 329.613281 C 112.628906 336.121094 118.730469 343.320313 125.628906 349.761719 C 128.738281 352.5 131.140625 357.5 135.941406 356.992188 C 175.320313 356.953125 214.699219 356.972656 254.078125 356.972656 C 258.019531 357.300781 260.039063 353.261719 262.601563 350.972656 C 289.328125 324.0625 316.230469 297.3125 343.019531 270.460938 C 344.710938 268.953125 345.421875 266.710938 345.28125 264.492188 C 345.25 226.113281 345.238281 187.730469 345.28125 149.363281 C 345.289063 147.371094 345.058594 145.230469 343.671875 143.703125 C 340.148438 139.261719 335.789063 135.613281 331.710938 131.710938 C 314.691406 114.722656 297.601563 97.792969 280.820313 80.550781 C 273.621094 73.800781 266.648438 66.8125 259.878906 59.621094 C 258.511719 58.34375 257.179688 56.53125 255.058594 56.84375 C 217.378906 56.773438 179.691406 56.851563 142 56.800781 C 139.039063 56.820313 136.050781 56.640625 133.101563 57.011719 Z M 123.660156 36.160156 C 126.738281 35.632813 129.890625 35.960938 133.011719 35.902344 C 174 35.941406 215 35.921875 255.988281 35.910156 C 259.101563 35.972656 262.261719 35.640625 265.351563 36.160156 C 267.820313 37.953125 269.808594 40.3125 272 42.421875 C 295.160156 65.601563 318.238281 88.851563 341.460938 111.953125 C 347.710938 118.382813 354.351563 124.433594 360.21875 131.230469 C 362.199219 133.761719 365.910156 135.671875 365.519531 139.351563 C 365.511719 182.703125 365.46875 226.0625 365.53125 269.410156 C 365.410156 272.003906 365.910156 274.730469 365.078125 277.222656 C 362.628906 280.503906 359.511719 283.183594 356.660156 286.101563 C 328.03125 314.441406 299.699219 343.09375 271.21875 371.582031 C 268.519531 374.042969 266.28125 378.292969 262.070313 377.792969 C 219.050781 377.78125 176.019531 377.761719 133 377.800781 C 129.25 377.660156 124.699219 378.683594 121.960938 375.382813 C 98.980469 352.371094 76.039063 329.3125 53 306.351563 C 48.929688 302.421875 45.082031 298.28125 41.269531 294.101563 C 36.210938 288.53125 30.03125 284.113281 25.089844 278.433594 C 24.101563 277.390625 24.460938 275.78125 24.289063 274.492188 C 24.359375 228.8125 24.261719 183.140625 24.339844 137.472656 C 24.148438 135.890625 25.199219 134.691406 26.199219 133.640625 C 42.121094 117.570313 58.238281 101.691406 74.167969 85.640625 C 80.511719 80.28125 86.191406 74.242188 91.582031 67.953125 C 99.621094 60.351563 107.410156 52.480469 115 44.433594 C 117.839844 41.621094 120.449219 38.542969 123.660156 36.160156 "/>
<path style=" stroke:none;fill-rule:nonzero;fill:rgb(96.099854%,52.198792%,19.599915%);fill-opacity:1;" d="M 197.109375 110.980469 C 193.570313 114.34375 193.121094 121.550781 198.039063 123.902344 C 202.988281 123.441406 203.019531 117.613281 201.5 114.050781 C 200.589844 112.371094 199.449219 109.652344 197.109375 110.980469 Z M 182.589844 107.953125 C 180.011719 109.800781 175.828125 113.53125 178.769531 116.761719 C 184.371094 119.003906 189.78125 112.660156 189.039063 107.390625 C 187.101563 106.191406 184.410156 106.753906 182.589844 107.953125 Z M 207.339844 106.351563 C 206.710938 111.351563 210.839844 115.042969 215.160156 116.542969 C 217.199219 114.863281 218.898438 112.003906 217.078125 109.523438 C 214.910156 106.882813 210.429688 104.28125 207.339844 106.351563 Z M 171.300781 94.890625 C 170.921875 96.390625 170.511719 97.890625 170.359375 99.453125 C 173.691406 103.382813 179.46875 101.980469 183.308594 99.652344 C 183.609375 98.632813 184.238281 97.101563 183.121094 96.351563 C 179.960938 93.3125 175.199219 94.351563 171.300781 94.890625 Z M 209.980469 95.332031 C 212.019531 99.960938 219.179688 101.53125 223.121094 98.542969 C 225.230469 97.3125 223.761719 94.78125 223.679688 92.910156 C 218.949219 91.332031 213.910156 92.320313 209.980469 95.332031 Z M 193.480469 88.121094 C 189.53125 90.113281 186.640625 94.871094 187.5 99.332031 C 188.53125 102.621094 190.878906 105.863281 194.269531 106.953125 C 197.511719 107.332031 201.339844 107.703125 203.929688 105.28125 C 208.328125 101.730469 208.738281 94.632813 204.839844 90.542969 C 202.171875 87.09375 197.308594 87.421875 193.480469 88.121094 Z M 178.25 78.632813 C 176.929688 79.800781 177.421875 81.84375 177.589844 83.382813 C 179.199219 86.523438 182.929688 87.78125 186.058594 88.871094 C 188.980469 87.140625 187.640625 82.78125 185.511719 80.863281 C 183.851563 78.910156 180.53125 76.421875 178.25 78.632813 Z M 211.28125 76.441406 C 208.738281 78.113281 206.5 80.511719 205.519531 83.441406 C 205.328125 84.78125 204.671875 87.601563 207.011719 87.191406 C 211.539063 87.523438 215.148438 83.511719 216.480469 79.523438 C 215.699219 77.511719 213.640625 74.84375 211.28125 76.441406 Z M 194.53125 71.992188 C 191.78125 75.882813 193.558594 81.480469 196.980469 84.433594 C 199.851563 81.511719 201.109375 77.492188 200.378906 73.460938 C 200.421875 70.570313 195.859375 69.542969 194.53125 71.992188 Z M 194.328125 67.390625 C 197.511719 66.480469 200.75 67.460938 203.839844 68.273438 C 208.488281 69.59375 213.320313 71.070313 216.910156 74.480469 C 221.648438 78.8125 225.839844 84.242188 227.351563 90.59375 C 227.75 95.382813 227.828125 100.261719 227.230469 105.042969 C 224.671875 113.542969 218.21875 120.601563 210.5 124.800781 C 204.410156 127.171875 197.601563 128.882813 191.171875 126.800781 C 181.828125 125.042969 173.570313 118.730469 169.710938 110.011719 C 166.621094 104.011719 167.039063 97.050781 167.671875 90.550781 C 170.621094 78.210938 182.140625 69.460938 194.328125 67.390625 "/>
<path style=" stroke:none;fill-rule:nonzero;fill:rgb(96.099854%,52.198792%,19.599915%);fill-opacity:1;" d="M 148.039063 143.382813 C 156.511719 138.210938 165.421875 133.460938 175.140625 131.160156 C 176.890625 130.8125 178.691406 130.972656 180.46875 131.03125 C 177.890625 135.242188 173.179688 137.171875 169.109375 139.5625 C 162.039063 143.480469 154.128906 146.742188 149.191406 153.472656 C 147.378906 155.863281 147.121094 159.050781 147.761719 161.902344 C 149.460938 166.683594 153.578125 169.882813 157.019531 173.382813 C 157.941406 174.222656 158.5 175.273438 158.679688 176.53125 C 157.71875 177.742188 156.53125 178.082031 155.121094 177.550781 C 146.769531 174.800781 140.449219 167.320313 138.28125 158.910156 C 137.898438 157.230469 137.289063 155.402344 138.148438 153.773438 C 140.019531 149.222656 144.078125 146.0625 148.039063 143.382813 "/>
<path style=" stroke:none;fill-rule:nonzero;fill:rgb(96.099854%,52.198792%,19.599915%);fill-opacity:1;" d="M 214.570313 131.113281 C 221.96875 130.210938 228.808594 134.101563 235.378906 136.960938 C 243.570313 141.242188 253.46875 145.382813 257.148438 154.550781 C 256.71875 165.332031 248.488281 175.570313 237.859375 177.84375 C 237.429688 177.53125 236.558594 176.902344 236.128906 176.59375 C 237.140625 172.511719 241.539063 170.652344 243.808594 167.320313 C 247.839844 162.863281 247.578125 155.421875 243.28125 151.230469 C 238.5 146.371094 232.078125 143.660156 226.378906 140.082031 C 222.261719 137.363281 217.25 135.503906 214.570313 131.113281 "/>
<path style=" stroke:none;fill-rule:nonzero;fill:rgb(96.099854%,52.198792%,19.599915%);fill-opacity:1;" d="M 174.300781 139.582031 C 178.480469 137.253906 182.820313 134.523438 187.800781 134.730469 C 187.648438 136.433594 187.171875 138.160156 185.660156 139.140625 C 182.128906 142.132813 177.789063 143.921875 174.078125 146.652344 C 170.628906 149.183594 168.371094 153.210938 167.679688 157.410156 C 168.351563 165.632813 176.019531 170.230469 179.898438 176.8125 C 174.859375 178.273438 170.21875 174.960938 166.808594 171.621094 C 162.550781 167.070313 159.828125 160.800781 159.839844 154.570313 C 161.890625 147.550781 168.28125 143.050781 174.300781 139.582031 "/>
<path style=" stroke:none;fill-rule:nonzero;fill:rgb(96.099854%,52.198792%,19.599915%);fill-opacity:1;" d="M 207.460938 134.882813 C 212.148438 134.140625 215.988281 137.433594 219.921875 139.410156 C 226.140625 142.792969 232.910156 147.101563 234.46875 154.570313 C 234.96875 160.960938 231.75 167.210938 227.230469 171.582031 C 223.929688 174.882813 219.488281 178.210938 214.539063 176.8125 C 217.871094 171.371094 223.859375 167.640625 225.5 161.183594 C 225.859375 157.402344 226.5 152.84375 223.488281 149.921875 C 218.789063 144.910156 212.269531 142.140625 207.351563 137.402344 C 207.371094 136.773438 207.429688 135.511719 207.460938 134.882813 "/>
<path style=" stroke:none;fill-rule:nonzero;fill:rgb(96.099854%,52.198792%,19.599915%);fill-opacity:1;" d="M 179.371094 156.410156 C 178.800781 147.640625 186.28125 140.191406 194.320313 138.011719 C 196.109375 142.363281 191.78125 145.09375 189.941406 148.441406 C 188.191406 151.722656 186.898438 155.523438 187.648438 159.261719 C 189.148438 165.011719 192.859375 169.773438 195.839844 174.8125 C 194.078125 175.53125 192.039063 176.671875 190.171875 175.550781 C 183.351563 171.921875 178.828125 164.183594 179.371094 156.410156 "/>
<path style=" stroke:none;fill-rule:nonzero;fill:rgb(96.099854%,52.198792%,19.599915%);fill-opacity:1;" d="M 198.328125 138.652344 C 203.710938 137.78125 207.640625 141.972656 210.859375 145.640625 C 213.78125 149.441406 216.371094 154.320313 215.089844 159.253906 C 213.621094 166.09375 209.660156 173.101563 202.828125 175.722656 C 201.140625 176.511719 199.511719 175.421875 197.949219 174.890625 C 201.050781 170.832031 204.589844 166.851563 206.050781 161.851563 C 207.808594 154.363281 204.851563 146.261719 198.578125 141.773438 C 198.5 140.722656 198.410156 139.691406 198.328125 138.652344 "/>
<path style=" stroke:none;fill-rule:nonzero;fill:rgb(96.099854%,52.198792%,19.599915%);fill-opacity:1;" d="M 143.441406 184.902344 C 145.171875 184.140625 147.089844 184.050781 148.960938 184.03125 C 180.320313 184.09375 211.671875 184.042969 243.019531 184.0625 C 245.878906 184.230469 249.480469 184.34375 251.121094 187.132813 C 252.839844 190.0625 252.761719 193.683594 252.230469 196.941406 C 250.988281 200.242188 247.839844 203.363281 244.050781 202.851563 C 211.070313 202.742188 178.078125 202.941406 145.101563 202.761719 C 137.140625 201.210938 135.71875 187.980469 143.441406 184.902344 "/>
<path style=" stroke:none;fill-rule:nonzero;fill:rgb(96.099854%,52.198792%,19.599915%);fill-opacity:1;" d="M 152.429688 208.800781 C 153.921875 207.511719 156.148438 208.042969 157.980469 207.820313 C 184 207.980469 210.03125 207.660156 236.050781 207.972656 C 239.230469 207.441406 240.710938 211.933594 238.410156 213.742188 C 237.011719 215.160156 234.871094 214.933594 233.050781 215.0625 C 208.019531 215.023438 182.988281 215.03125 157.949219 215.0625 C 155.699219 215.082031 152.96875 214.972656 151.730469 212.742188 C 151.378906 211.453125 151.300781 209.742188 152.429688 208.800781 "/>
<path style=" stroke:none;fill-rule:nonzero;fill:rgb(96.099854%,52.198792%,19.599915%);fill-opacity:1;" d="M 110.800781 222.671875 C 121.269531 219.621094 132.289063 221.050781 143.019531 220.960938 C 160.640625 222.183594 178.339844 221.640625 196 221.773438 C 210.339844 221.78125 224.679688 221.800781 239.011719 221.582031 C 246.980469 220.761719 255 220.84375 263 220.753906 C 274.960938 220.203125 287.320313 223.253906 296.96875 230.511719 C 299.171875 232.042969 300.609375 234.363281 301.089844 236.992188 C 230.691406 237.042969 160.300781 237.011719 89.910156 237.003906 C 90.410156 235.171875 90.878906 233.171875 92.480469 231.960938 C 97.769531 227.542969 104.058594 224.242188 110.800781 222.671875 "/>
<path style=" stroke:none;fill-rule:nonzero;fill:rgb(96.099854%,52.198792%,19.599915%);fill-opacity:1;" d="M 103.121094 248.933594 C 100.421875 249.890625 97.980469 252.34375 98.417969 255.433594 C 98.019531 259.152344 100.949219 262.230469 104.109375 263.671875 C 107.710938 264.722656 111.171875 262.492188 113.261719 259.710938 C 114.039063 256.710938 114.429688 252.890625 111.820313 250.652344 C 109.71875 248.0625 106.039063 248.453125 103.121094 248.933594 Z M 284.261719 248.363281 C 282.128906 249.210938 280.121094 250.613281 278.929688 252.613281 C 277.078125 257.210938 280.210938 262.851563 285.039063 263.792969 C 289.929688 264.792969 293.769531 259.820313 294.339844 255.460938 C 293.769531 250.882813 288.699219 247.292969 284.261719 248.363281 Z M 254.28125 248.28125 C 252.121094 249.003906 249.910156 250.101563 248.570313 252.023438 C 245.078125 257.492188 251.921875 265.371094 257.828125 263.550781 C 260.820313 261.933594 263.058594 258.792969 263.488281 255.410156 C 263.121094 251.140625 258.621094 247.042969 254.28125 248.28125 Z M 191.628906 249.011719 C 189.109375 250.523438 187.640625 253.503906 187.519531 256.382813 C 188.621094 259.550781 191.039063 262.3125 194.171875 263.613281 C 198.730469 264.851563 203.398438 260.632813 203.738281 256.160156 C 204.609375 250.191406 196.390625 246.121094 191.628906 249.011719 Z M 164.28125 248.300781 C 161.628906 249.253906 159.039063 250.953125 157.800781 253.570313 C 156.421875 259.070313 162.378906 264.980469 167.859375 263.652344 C 170.449219 262.621094 172.558594 260.421875 173.589844 257.851563 C 176.210938 252.59375 169.261719 246.800781 164.28125 248.300781 Z M 135.230469 248.601563 C 132.449219 248.363281 130.21875 250.410156 128.839844 252.613281 C 126.558594 257.683594 131.238281 264.703125 136.949219 263.78125 C 141.75 262.710938 145.109375 257.300781 143.191406 252.582031 C 141.488281 249.890625 138.46875 248.09375 135.230469 248.601563 Z M 224.398438 248.003906 C 220.808594 248.480469 217.070313 251.492188 217.46875 255.421875 C 217.109375 259.402344 220.539063 262.601563 224.058594 263.742188 C 230.03125 265.042969 235.25 258.003906 232.96875 252.542969 C 231.820313 249.121094 227.789063 247.441406 224.398438 248.003906 Z M 86.582031 241.863281 C 159.21875 241.863281 231.859375 241.84375 304.511719 241.871094 C 304.890625 249.640625 304.640625 257.410156 304.480469 265.183594 C 302.351563 265.582031 300.191406 265.882813 298.03125 265.882813 C 229.328125 265.84375 160.628906 265.882813 91.941406 265.871094 C 90.121094 265.832031 88.371094 265.34375 86.621094 264.941406 C 86.550781 261.421875 86.46875 257.890625 86.058594 254.402344 C 85.390625 250.210938 86.429688 246.042969 86.582031 241.863281 "/>
<path style=" stroke:none;fill-rule:nonzero;fill:rgb(96.099854%,52.198792%,19.599915%);fill-opacity:1;" d="M 90 270.003906 C 160.28125 270.050781 230.570313 270.121094 300.851563 269.960938 C 300.898438 275.570313 298.230469 280.621094 295.898438 285.550781 C 294.5 288.160156 292.550781 291.550781 289.070313 290.992188 C 233.050781 290.960938 177.019531 290.992188 121 290.980469 C 113.691406 290.8125 106.359375 291.3125 99.070313 290.761719 C 96.789063 288.550781 95.738281 285.480469 94.460938 282.660156 C 92.75 278.53125 90.609375 274.492188 90 270.003906 "/>
<path style=" stroke:none;fill-rule:nonzero;fill:rgb(96.099854%,52.198792%,19.599915%);fill-opacity:1;" d="M 106.210938 297.023438 C 111.351563 295.472656 116.761719 296.253906 122.039063 296.0625 C 123.960938 296.210938 126.820313 295.5625 127.609375 297.941406 C 129.808594 303.140625 132.21875 308.28125 135.910156 312.621094 C 137.660156 315.382813 140.820313 317.5625 141.351563 320.890625 C 136.070313 320.882813 131.351563 318.023438 126.640625 315.992188 C 118 311.933594 111.941406 304.371094 106.210938 297.023438 "/>
<path style=" stroke:none;fill-rule:nonzero;fill:rgb(96.099854%,52.198792%,19.599915%);fill-opacity:1;" d="M 135.410156 300.410156 C 135.070313 297.492188 139.101563 294.730469 141.5 296.78125 C 145.191406 299.800781 146.519531 304.582031 148.558594 308.691406 C 150.769531 313.730469 155.230469 317.222656 158.011719 321.902344 C 155.210938 321.992188 152.289063 322.5 149.558594 321.683594 C 144.96875 319.082031 141.839844 314.671875 138.789063 310.503906 C 136.640625 307.59375 134.960938 304.121094 135.410156 300.410156 "/>
<path style=" stroke:none;fill-rule:nonzero;fill:rgb(96.099854%,52.198792%,19.599915%);fill-opacity:1;" d="M 153.738281 298.550781 C 155.011719 294.820313 160.28125 295.972656 162.839844 297.753906 C 168.011719 301.742188 169.238281 308.980469 174.550781 312.921875 C 173.96875 307.460938 171.550781 302.28125 172.488281 296.671875 C 173.960938 296.433594 175.421875 296.152344 176.898438 296.113281 C 180.558594 299.5625 181.019531 304.871094 182.988281 309.261719 C 184.71875 313.773438 189.371094 317 189.03125 322.230469 C 186.550781 322 183.699219 322.460938 181.691406 320.660156 C 178.839844 318.152344 177.238281 314.550781 174.5 311.921875 C 174.488281 314.863281 176.019531 317.84375 175.269531 320.742188 C 173.648438 324.5 169.070313 324.5 165.71875 323.492188 C 156.839844 319.070313 151.898438 308.203125 153.738281 298.550781 "/>
<path style=" stroke:none;fill-rule:nonzero;fill:rgb(96.099854%,52.198792%,19.599915%);fill-opacity:1;" d="M 189.320313 296.871094 C 194.71875 296.921875 200.160156 296.441406 205.539063 296.992188 C 208.769531 299.53125 208.671875 304.261719 208.308594 307.992188 C 207.089844 314.28125 202.828125 320.300781 197.039063 323.09375 C 190.511719 318.511719 185.789063 310.691406 186.449219 302.542969 C 186.398438 300.273438 188.210938 298.660156 189.320313 296.871094 "/>
<path style=" stroke:none;fill-rule:nonzero;fill:rgb(96.099854%,52.198792%,19.599915%);fill-opacity:1;" d="M 216.398438 297.683594 C 217.621094 295.203125 221.769531 295.800781 222.179688 298.550781 C 223.289063 302.933594 220.699219 307.050781 220.21875 311.300781 C 221.839844 311.761719 222.699219 310.042969 223.609375 309.050781 C 226.621094 304.832031 229.039063 299.910156 233.53125 297.011719 C 235.78125 295.550781 238.460938 296.402344 240.898438 296.710938 C 242.808594 303.933594 240.679688 311.792969 236.050781 317.53125 C 233.261719 321.203125 229.03125 324.613281 224.128906 323.960938 C 222.070313 323.980469 219.351563 322.5625 219.578125 320.203125 C 219.351563 317.652344 220.339844 315.113281 219.828125 312.601563 C 216.621094 314.78125 215.539063 319.230469 212.371094 321.632813 C 210.171875 322.390625 207.78125 322.230469 205.539063 321.84375 C 205.308594 318.640625 207.820313 316.222656 209.25 313.601563 C 212.519531 308.710938 213.5 302.753906 216.398438 297.683594 "/>
<path style=" stroke:none;fill-rule:nonzero;fill:rgb(96.099854%,52.198792%,19.599915%);fill-opacity:1;" d="M 251.96875 297.390625 C 253.640625 295.332031 256.5 296.492188 258.710938 296.660156 C 260.109375 301.230469 259.089844 306.050781 256.441406 309.972656 C 253.679688 314.601563 250.371094 319.320313 245.328125 321.683594 C 243.011719 322.453125 240.511719 322.070313 238.109375 322.121094 C 237.949219 317.050781 242.75 314.441406 245.179688 310.613281 C 248.121094 306.570313 249.089844 301.460938 251.96875 297.390625 "/>
<path style=" stroke:none;fill-rule:nonzero;fill:rgb(96.099854%,52.198792%,19.599915%);fill-opacity:1;" d="M 265.148438 301.472656 C 266.289063 299.402344 266.929688 296.050781 269.929688 296.160156 C 276.019531 295.992188 282.148438 295.863281 288.21875 296.480469 C 285.890625 301.28125 282.019531 305.050781 278.449219 308.921875 C 271.550781 316.382813 261.601563 319.992188 251.941406 322.25 C 256.199219 315.25 261.769531 309.03125 265.148438 301.472656 "/>
<path style=" stroke:none;fill-rule:nonzero;fill:rgb(96.099854%,52.198792%,19.599915%);fill-opacity:1;" d="M 136.5 327.933594 C 176.511719 327.941406 216.519531 327.972656 256.519531 327.921875 C 256.621094 335.160156 256.480469 342.410156 256.628906 349.652344 C 237.101563 350.371094 217.539063 349.761719 198 349.960938 C 177.460938 349.761719 156.910156 350.371094 136.390625 349.652344 C 136.53125 342.410156 136.429688 335.171875 136.5 327.933594 "/>
<path style=" stroke:none;fill-rule:nonzero;fill:rgb(0%,0%,0%);fill-opacity:1;" d="M 1127.691406 220.445313 C 1124.660156 224.957031 1128.921875 229.816406 1132.988281 231.65625 C 1139.058594 235.117188 1146.511719 235.796875 1153.210938 234.058594 C 1158.988281 232.445313 1162.050781 226.195313 1161.121094 220.507813 C 1149.980469 220.296875 1138.828125 220.4375 1127.691406 220.445313 Z M 1147.320313 190.546875 C 1147.289063 196.117188 1147.320313 201.675781 1147.308594 207.246094 C 1151.898438 207.265625 1156.5 207.398438 1161.089844 206.996094 C 1160.941406 201.628906 1160.929688 196.257813 1161.109375 190.898438 C 1156.539063 190.207031 1151.910156 190.558594 1147.320313 190.546875 Z M 1185.730469 150.378906 C 1181.789063 151.207031 1178.679688 154.066406 1176.671875 157.4375 C 1175.921875 161.835938 1175.890625 166.398438 1176.75 170.785156 C 1177.910156 172.707031 1178.078125 175.757813 1180.519531 176.496094 C 1183.378906 176.816406 1186.269531 176.46875 1189.148438 176.648438 C 1190.488281 176.488281 1191.289063 178.046875 1191.351563 179.195313 C 1191.730469 182.957031 1191.570313 186.765625 1190.789063 190.46875 C 1185.21875 190.457031 1179.648438 190.558594 1174.078125 190.65625 C 1174.089844 196.1875 1174.101563 201.707031 1174.101563 207.238281 C 1182.660156 207.457031 1191.550781 206.675781 1199.679688 209.898438 C 1204.25 211.898438 1206.980469 216.226563 1209.039063 220.566406 C 1209.660156 202.117188 1209.210938 183.628906 1209.28125 165.167969 C 1208.300781 160.65625 1206.03125 156.105469 1202.269531 153.257813 C 1197.511719 149.90625 1191.328125 149.40625 1185.730469 150.378906 Z M 1173.699219 140.488281 C 1180.800781 135.476563 1189.980469 136.257813 1198.179688 137.117188 C 1206.929688 138.886719 1215.011719 144.6875 1218.730469 152.925781 C 1221.109375 156.527344 1220.660156 161.007813 1220.871094 165.128906 C 1220.738281 192.65625 1221.121094 220.207031 1220.691406 247.726563 C 1216.898438 247.855469 1213.121094 247.828125 1209.351563 247.738281 C 1209.371094 243.515625 1209.441406 239.296875 1208.828125 235.117188 C 1206.730469 243.015625 1198.429688 248.488281 1190.371094 247.746094 C 1187.679688 247.828125 1185.191406 246.757813 1182.710938 245.90625 C 1181.171875 245.648438 1180.539063 243.667969 1181.289063 242.425781 C 1182.519531 239.628906 1183.941406 236.898438 1185.691406 234.378906 C 1188.238281 234.726563 1190.878906 235.195313 1193.429688 234.515625 C 1195.691406 233.085938 1198.398438 231.007813 1198.230469 228.027344 C 1198.308594 223.476563 1193.710938 220.277344 1189.449219 220.40625 C 1184.308594 220.367188 1179.179688 220.367188 1174.050781 220.507813 C 1174.609375 226.207031 1173.339844 232.078125 1170.269531 236.917969 C 1165.289063 243.757813 1156.78125 247.296875 1148.511719 247.726563 C 1139.058594 248.46875 1129.789063 244.796875 1122.128906 239.488281 C 1116.710938 235.058594 1112.449219 228.328125 1113.160156 221.066406 C 1113.21875 216.628906 1115.421875 212.347656 1119.128906 209.878906 C 1123.710938 207.296875 1129.101563 207.6875 1134.191406 207.40625 C 1133.980469 199.648438 1134.160156 191.878906 1134.058594 184.105469 C 1133.980469 181.597656 1134.179688 179.078125 1134.820313 176.648438 C 1144.511719 176.585938 1154.210938 176.675781 1163.898438 176.597656 C 1162.839844 170.445313 1160.261719 164.148438 1162.699219 157.925781 C 1163.761719 150.976563 1167.429688 144.058594 1173.699219 140.488281 "/>
<path style=" stroke:none;fill-rule:nonzero;fill:rgb(0%,0%,0%);fill-opacity:1;" d="M 582.316406 140.335938 C 589.007813 135.785156 599.65625 142.015625 598.628906 150.148438 C 598.988281 155.226563 594.535156 159.335938 589.925781 160.566406 C 583.71875 161.695313 576.65625 156.636719 576.945313 150.035156 C 576.527344 146.015625 579.046875 142.40625 582.316406 140.335938 "/>
<path style=" stroke:none;fill-rule:nonzero;fill:rgb(0%,0%,0%);fill-opacity:1;" d="M 767.195313 140.007813 C 770.578125 138.335938 775.578125 138.226563 778.476563 141.027344 C 781.746094 143.507813 784.195313 147.726563 783.128906 151.9375 C 781.957031 155.355469 779.628906 158.535156 776.128906 159.816406 C 770.957031 162.515625 764.867188 158.988281 762.21875 154.347656 C 759.558594 149.117188 762.246094 142.796875 767.195313 140.007813 "/>
<path style=" stroke:none;fill-rule:nonzero;fill:rgb(0%,0%,0%);fill-opacity:1;" d="M 1056.019531 139.6875 C 1061.730469 137.1875 1069.050781 140.4375 1070.949219 146.425781 C 1073.730469 153.425781 1066.671875 161.40625 1059.46875 160.667969 C 1054.03125 159.808594 1048.78125 154.917969 1049.378906 149.105469 C 1049.320313 144.945313 1052.789063 141.808594 1056.019531 139.6875 "/>
<path style=" stroke:none;fill-rule:nonzero;fill:rgb(0%,0%,0%);fill-opacity:1;" d="M 460.878906 222.785156 C 460.636719 224.847656 462.398438 226.386719 463.425781 227.996094 C 468.507813 233.316406 476.195313 235.558594 483.425781 234.847656 C 488.128906 235.117188 492.417969 232.4375 495.058594 228.6875 C 495.828125 225.976563 496.085938 223.128906 495.667969 220.335938 C 485.296875 220.546875 474.925781 220.265625 464.566406 220.46875 C 462.90625 220.335938 461.96875 221.835938 460.878906 222.785156 Z M 482.417969 190.527344 C 482.4375 196.097656 482.4375 201.675781 482.425781 207.257813 C 486.796875 207.238281 491.15625 207.277344 495.527344 207.226563 C 495.507813 201.6875 495.535156 196.148438 495.507813 190.605469 C 491.148438 190.445313 486.777344 190.507813 482.417969 190.527344 Z M 469.6875 176.636719 C 488.40625 176.617188 507.128906 176.628906 525.855469 176.628906 C 526.496094 177.355469 527.15625 178.066406 527.835938 178.777344 C 527.847656 182.015625 527.867188 185.246094 527.828125 188.488281 C 527.136719 189.128906 526.46875 189.796875 525.828125 190.488281 C 520.296875 190.738281 514.6875 189.996094 509.226563 190.917969 C 508.578125 196.277344 509.207031 201.71875 508.988281 207.117188 C 516.167969 207.4375 523.355469 207.128906 530.546875 207.316406 C 531.078125 211.636719 530.90625 215.988281 530.796875 220.328125 C 523.957031 220.40625 517.105469 220.546875 510.265625 220.265625 C 508.1875 223.765625 509.238281 227.988281 507.996094 231.738281 C 505.675781 237.527344 501.117188 242.496094 495.328125 244.925781 C 487.328125 248.476563 477.976563 248.757813 469.726563 245.898438 C 461.546875 243.105469 453.195313 238.1875 449.667969 229.90625 C 448.9375 227.035156 447.398438 224.246094 447.816406 221.195313 C 448.765625 216.238281 450.796875 210.238281 456.347656 208.945313 C 460.46875 207.257813 464.917969 207.667969 469.257813 207.476563 C 469.378906 197.195313 468.648438 186.867188 469.6875 176.636719 "/>
<path style=" stroke:none;fill-rule:nonzero;fill:rgb(0%,0%,0%);fill-opacity:1;" d="M 594.496094 196.078125 C 594.515625 208.898438 594.457031 221.726563 594.546875 234.546875 C 599.988281 234.207031 606.066406 235.898438 610.898438 232.578125 C 613.945313 230.265625 614.878906 226.355469 616.207031 222.96875 C 616.546875 216.4375 616.648438 209.855469 616.238281 203.328125 C 615.21875 200.507813 613.957031 197.707031 612.21875 195.246094 C 609.417969 191.71875 604.828125 189.976563 600.378906 190.515625 C 597.378906 190.347656 594.175781 192.945313 594.496094 196.078125 Z M 548.9375 176.566406 C 552.40625 176.648438 555.878906 176.667969 559.347656 176.507813 C 560.378906 181.308594 559.785156 186.246094 559.925781 191.117188 C 559.808594 205.277344 560.1875 219.457031 559.726563 233.605469 C 561.226563 234.148438 562.746094 234.738281 564.386719 234.605469 C 570.058594 234.617188 575.726563 234.578125 581.40625 234.546875 C 581.386719 221.386719 581.40625 208.21875 581.386719 195.058594 C 581.246094 189.167969 583.785156 182.828125 588.945313 179.636719 C 598.605469 174.335938 611.285156 176.808594 618.90625 184.597656 C 624.878906 190.195313 627.90625 198.136719 629.335938 206.007813 C 629.328125 212.835938 630.15625 219.945313 627.808594 226.507813 C 627.207031 233.988281 623.007813 241.367188 616.246094 244.925781 C 608.265625 249.035156 599.046875 247.515625 590.417969 247.816406 C 575.945313 247.566406 561.445313 248.285156 547.007813 247.457031 C 546.578125 224.527344 546.90625 201.578125 546.835938 178.648438 C 547.535156 177.957031 548.238281 177.265625 548.9375 176.566406 "/>
<path style=" stroke:none;fill-rule:nonzero;fill:rgb(0%,0%,0%);fill-opacity:1;" d="M 644.535156 176.597656 C 648.585938 176.628906 652.648438 176.558594 656.707031 176.757813 C 657.378906 195.988281 656.757813 215.257813 657.015625 234.496094 C 669.726563 234.527344 682.457031 234.90625 695.15625 234.296875 C 695.007813 218.566406 695.136719 202.847656 695.085938 187.117188 C 695.078125 183.605469 694.96875 180.078125 695.507813 176.597656 C 698.957031 176.628906 702.417969 176.628906 705.878906 176.597656 C 706.507813 177.335938 707.15625 178.066406 707.828125 178.796875 C 707.925781 201.417969 707.808594 224.035156 707.878906 246.65625 C 704.976563 248.316406 701.585938 247.757813 698.417969 247.816406 C 680.265625 247.636719 662.105469 248.105469 643.976563 247.585938 C 643.445313 228.445313 643.898438 209.277344 643.757813 190.117188 C 643.9375 185.617188 643.136719 180.96875 644.535156 176.597656 "/>
<path style=" stroke:none;fill-rule:nonzero;fill:rgb(0%,0%,0%);fill-opacity:1;" d="M 732.546875 224.847656 C 735.097656 230.265625 740.828125 233.328125 746.457031 234.578125 C 752.035156 235.1875 758.367188 235.457031 763.027344 231.765625 C 766.425781 229.078125 766.65625 224.355469 766.21875 220.378906 C 756.265625 220.476563 746.316406 220.335938 736.378906 220.417969 C 733.96875 220.058594 731.617188 222.445313 732.546875 224.847656 Z M 752.566406 190.738281 C 752.695313 196.195313 752.695313 201.667969 752.585938 207.136719 C 757.21875 207.335938 761.867188 207.277344 766.507813 207.21875 C 766.527344 201.6875 766.535156 196.148438 766.507813 190.617188 C 761.855469 190.46875 757.195313 190.367188 752.566406 190.738281 Z M 739.785156 176.695313 C 758.605469 176.515625 777.425781 176.6875 796.238281 176.605469 C 796.648438 181.238281 796.695313 185.917969 796.1875 190.546875 C 790.957031 190.507813 785.71875 190.386719 780.488281 190.597656 L 779.847656 191.246094 C 779.558594 196.535156 779.898438 201.847656 779.71875 207.15625 C 784.046875 207.21875 788.488281 206.925781 792.597656 208.597656 C 801.816406 209.828125 808.136719 218.046875 811.238281 226.238281 C 814.296875 235.386719 814.46875 246.265625 808.96875 254.558594 C 802.617188 264.898438 790.238281 270.105469 778.445313 270.378906 C 764.765625 270.757813 751.078125 270.496094 737.40625 270.476563 C 735.046875 270.46875 732.6875 271.15625 730.855469 272.675781 C 729.027344 276.167969 729.378906 280.667969 731.507813 283.976563 C 730.996094 284.515625 730.496094 285.058594 730.007813 285.617188 C 725.917969 284.996094 720.636719 287.277344 717.488281 283.886719 C 716.867188 277.527344 715.597656 269.988281 719.886719 264.628906 C 723.878906 259.785156 730.328125 257.726563 736.4375 257.738281 C 750.425781 257.585938 764.425781 257.796875 778.417969 257.648438 C 785.726563 256.785156 793.847656 254.1875 797.765625 247.445313 C 801.058594 241.695313 800.785156 234.226563 798.167969 228.277344 C 795.285156 221.308594 786.527344 219.507813 779.785156 220.667969 C 780.078125 228.085938 778.167969 236.058594 772.367188 241.085938 C 763.925781 247.46875 752.425781 249.535156 742.308594 246.417969 C 733.828125 244.117188 725.265625 239.195313 721.4375 230.917969 C 718.007813 224.816406 718.585938 216.367188 723.558594 211.265625 C 727.878906 207.425781 733.957031 207.398438 739.40625 207.585938 C 739.597656 197.296875 738.90625 186.957031 739.785156 176.695313 "/>
<path style=" stroke:none;fill-rule:nonzero;fill:rgb(0%,0%,0%);fill-opacity:1;" d="M 893.996094 218.578125 C 892.335938 220.417969 890.667969 222.558594 890.648438 225.15625 C 890.285156 229.847656 894.855469 233.878906 899.425781 233.546875 C 902.007813 233.597656 904.128906 231.988281 906.238281 230.71875 C 906.765625 226.878906 908.066406 221.667969 904.398438 219.027344 C 901.425781 216.808594 897.238281 216.996094 893.996094 218.578125 Z M 893.675781 182.265625 C 899.628906 178.347656 906.785156 177.726563 913.628906 176.636719 C 924.488281 176.726563 935.246094 181.957031 941.695313 190.796875 C 946.527344 196.855469 949.207031 204.417969 949.855469 212.105469 C 949.867188 220.046875 947.585938 227.925781 943.066406 234.496094 C 952.226563 234.707031 961.398438 234.546875 970.566406 234.578125 C 970.925781 215.308594 970.035156 195.988281 971.027344 176.757813 C 975.097656 176.535156 979.175781 176.628906 983.265625 176.605469 C 984.167969 182.066406 983.628906 187.617188 983.765625 193.117188 C 983.6875 211.285156 983.945313 229.46875 983.617188 247.636719 C 964.058594 248.128906 944.476563 247.546875 924.917969 247.917969 C 923.855469 243.785156 924.128906 239.457031 924.398438 235.246094 C 926.867188 232.335938 930.648438 230.707031 932.636719 227.328125 C 936.90625 221.566406 936.496094 213.917969 935.648438 207.1875 C 933.65625 201.21875 929.746094 195.566406 923.945313 192.757813 C 919.617188 190.046875 914.296875 190.316406 909.417969 190.675781 C 904.40625 191.058594 899.847656 193.585938 895.996094 196.65625 C 893.585938 199.308594 892.078125 202.597656 890.46875 205.746094 C 894.71875 205.097656 899.058594 204.40625 903.367188 205.117188 C 910.867188 206.808594 917.367188 212.726563 919.378906 220.195313 C 919.785156 225.457031 920.785156 231.488281 917.40625 236.007813 C 913.535156 242.457031 905.945313 246.71875 898.398438 246.277344 C 891.316406 246.878906 885.105469 241.847656 881.597656 236.117188 C 877.976563 230.398438 877.097656 223.597656 876.128906 217.046875 C 875.207031 203.488281 881.578125 189.078125 893.675781 182.265625 "/>
<path style=" stroke:none;fill-rule:nonzero;fill:rgb(0%,0%,0%);fill-opacity:1;" d="M 998.957031 176.695313 C 1015.71875 176.507813 1032.488281 176.738281 1049.25 176.578125 C 1050.300781 181.117188 1050.488281 186.058594 1049.121094 190.546875 C 1045.339844 190.445313 1041.558594 190.476563 1037.800781 190.585938 C 1037.761719 193.136719 1037.738281 195.695313 1037.71875 198.265625 C 1045.621094 194.367188 1056.410156 195.117188 1062.480469 201.996094 C 1070.730469 211.035156 1069.851563 226.617188 1060.238281 234.378906 C 1069.800781 234.796875 1079.390625 234.578125 1088.96875 234.488281 C 1089.050781 215.867188 1089.03125 197.246094 1088.980469 178.628906 C 1089.589844 177.945313 1090.210938 177.257813 1090.839844 176.566406 C 1094.269531 176.648438 1097.699219 176.636719 1101.140625 176.585938 C 1102.359375 182.347656 1101.53125 188.277344 1101.769531 194.117188 C 1101.589844 211.996094 1102.140625 229.90625 1101.488281 247.765625 C 1084.460938 247.878906 1067.441406 247.765625 1050.421875 247.816406 C 1041.691406 247.558594 1032.910156 248.347656 1024.230469 247.347656 C 1024.191406 243.40625 1024.238281 239.476563 1024.128906 235.546875 C 1030.488281 232.796875 1038.210938 236.917969 1044.050781 232.515625 C 1049.53125 229.226563 1054.898438 223.96875 1055.019531 217.167969 C 1054.441406 214.285156 1053.058594 211.496094 1050.851563 209.527344 C 1046.429688 208.628906 1040.148438 208.527344 1037.898438 213.175781 C 1037.519531 217.898438 1037.929688 222.65625 1037.671875 227.398438 C 1033.488281 227.296875 1028.941406 228.367188 1025 226.945313 C 1024.210938 214.667969 1025.101563 202.308594 1024.570313 190.007813 C 1020.339844 189.878906 1016.109375 189.957031 1011.890625 189.9375 C 1011.21875 209.128906 1011.898438 228.367188 1011.550781 247.578125 C 1007.238281 247.90625 1002.890625 248.027344 998.597656 247.425781 C 998.117188 229.667969 998.546875 211.886719 998.378906 194.117188 C 998.507813 188.308594 997.9375 182.445313 998.957031 176.695313 "/>
<path style=" stroke:none;fill-rule:nonzero;fill:rgb(0%,0%,0%);fill-opacity:1;" d="M 480.265625 298.855469 C 482.308594 298.535156 484.277344 297.777344 486.367188 297.738281 C 496.007813 297.617188 505.65625 297.878906 515.296875 297.605469 C 516.21875 300.707031 515.835938 303.988281 515.425781 307.148438 C 515.226563 309.585938 512.855469 310.96875 510.917969 311.96875 C 503.648438 312.296875 496.355469 311.636719 489.097656 312.175781 C 484.195313 313.015625 479.648438 317.867188 480.816406 323.058594 C 481.296875 324.648438 482.097656 326.125 482.867188 327.597656 C 489.816406 333.148438 500.015625 331.726563 506.488281 338.027344 C 510.757813 341.738281 511.097656 347.917969 510.445313 353.15625 C 509.238281 361.175781 507.417969 369.476563 502.355469 376.027344 C 498.867188 380.636719 493.285156 383.726563 487.4375 383.578125 C 475.746094 383.617188 464.058594 383.695313 452.378906 383.546875 C 450.007813 383.796875 448.71875 381.515625 447.6875 379.785156 C 447.007813 377.027344 449.066406 374.667969 449.296875 372.007813 C 449.605469 369.4375 450.578125 367.035156 451.535156 364.65625 C 453.917969 364.96875 455.648438 366.738281 457.835938 367.515625 C 462.347656 367.917969 466.886719 367.527344 471.417969 367.65625 C 476.175781 367.535156 481.1875 368.226563 485.726563 366.417969 C 489.855469 363.546875 489.878906 358.085938 488.945313 353.65625 C 486.898438 348.125 480.65625 346.828125 475.746094 345.007813 C 470.535156 343.117188 464.667969 340.476563 462.558594 334.9375 C 461.15625 326.847656 462.898438 318.457031 466.226563 311.046875 C 469.027344 305.417969 473.65625 299.71875 480.265625 298.855469 "/>
<path style=" stroke:none;fill-rule:nonzero;fill:rgb(0%,0%,0%);fill-opacity:1;" d="M 960.246094 366.527344 C 961.40625 367.558594 962.578125 368.855469 964.308594 368.65625 C 969.675781 368.605469 975.046875 368.898438 980.417969 368.738281 C 982.296875 367.898438 983.675781 366.246094 985.007813 364.707031 C 988.488281 360.945313 987.71875 355.476563 988.667969 350.808594 C 989.265625 348.148438 988.585938 345.535156 987.046875 343.347656 C 981.257813 343.136719 975.457031 342.96875 969.6875 343.285156 C 963.835938 349.617188 964.316406 359.175781 960.246094 366.527344 Z M 974.757813 312.175781 C 974.265625 317.605469 971.65625 322.605469 971.726563 328.148438 C 977.535156 328.046875 983.386719 328.515625 989.175781 327.917969 C 991.226563 326.71875 992.765625 324.796875 994.058594 322.828125 C 994.726563 319.308594 994.996094 315.675781 994.628906 312.105469 C 988.007813 311.828125 981.347656 311.308594 974.757813 312.175781 Z M 956.796875 299.308594 C 972.277344 298.746094 987.796875 298.976563 1003.289063 298.847656 C 1008.511719 298.257813 1013.578125 302.796875 1013.660156 308.027344 C 1013.648438 312.308594 1013.039063 316.597656 1011.800781 320.695313 C 1010.710938 326.066406 1008.148438 331.355469 1003.460938 334.445313 C 1006.75 336.515625 1009.28125 340.085938 1009.21875 344.085938 C 1009.191406 347.117188 1009.519531 350.246094 1008.699219 353.21875 C 1006.960938 357.808594 1008.011719 362.976563 1005.710938 367.425781 C 1003.039063 376.15625 995.40625 385.195313 985.46875 384.398438 C 971.828125 384.308594 958.1875 384.398438 944.546875 384.355469 C 941.675781 384.335938 939.355469 382.488281 937.707031 380.308594 C 938.917969 378.105469 939.277344 375.636719 939.488281 373.175781 C 945.347656 348.578125 950.667969 323.835938 956.796875 299.308594 "/>
<path style=" stroke:none;fill-rule:nonzero;fill:rgb(0%,0%,0%);fill-opacity:1;" d="M 888.398438 298.878906 C 894.355469 298.296875 900.4375 298.195313 906.378906 299.078125 C 907.335938 306.046875 903.988281 312.4375 902.828125 319.175781 C 908.277344 316.277344 913.996094 312.898438 920.417969 313.457031 C 927.007813 313.21875 935.257813 313.058594 939.085938 319.558594 C 940.246094 324.308594 939.738281 329.296875 939.308594 334.117188 C 935.667969 348.125 932.265625 362.226563 928.535156 376.167969 C 928.148438 378.90625 928.457031 381.675781 928.21875 384.4375 C 922.398438 383.707031 915.976563 385.816406 910.597656 382.96875 C 908.757813 378.867188 910.117188 374.175781 911.128906 370.015625 C 913.738281 359.605469 916.765625 349.347656 919.378906 338.96875 C 920.046875 336.167969 920.097656 333.265625 919.308594 330.496094 C 912.347656 326.148438 901.617188 328.027344 897.976563 335.808594 C 897.207031 339.976563 895.386719 343.886719 895.195313 348.175781 C 892.96875 357.207031 891.257813 366.386719 888.648438 375.328125 C 888.066406 378.105469 888.726563 380.917969 889.285156 383.65625 C 883.355469 383.96875 877.367188 384.1875 871.46875 383.65625 C 868.578125 383.21875 868.65625 379.6875 868.945313 377.46875 C 869.738281 372.375 871.207031 367.398438 872.707031 362.488281 C 876.066406 346.566406 880.796875 330.886719 884.347656 315.007813 C 885.507813 309.597656 887.257813 304.316406 888.398438 298.878906 "/>
<path style=" stroke:none;fill-rule:nonzero;fill:rgb(0%,0%,0%);fill-opacity:1;" d="M 1170.449219 299.316406 C 1177.261719 299.066406 1184.171875 298.617188 1190.941406 299.617188 C 1191.808594 302.367188 1191.550781 305.277344 1190.550781 307.957031 C 1189.191406 311.476563 1189.609375 315.398438 1188.011719 318.847656 C 1187.210938 325.027344 1185.699219 331.085938 1184.171875 337.125 C 1190.058594 332.078125 1194.160156 325.257813 1199.910156 320.015625 C 1198.53125 318.277344 1197.25 316.46875 1196.289063 314.476563 C 1201.609375 313.417969 1207.058594 314.058594 1212.449219 313.675781 C 1215.289063 313.445313 1218.140625 313.765625 1220.75 315.007813 C 1220.441406 317.015625 1221.070313 319.535156 1219.390625 321.066406 C 1215.851563 324.875 1212.070313 328.4375 1208.410156 332.125 C 1206.550781 333.996094 1204.351563 335.738281 1203.53125 338.355469 C 1207 338.625 1210.660156 338.257813 1213.960938 339.535156 C 1216.421875 341.488281 1215.988281 344.867188 1215.679688 347.636719 C 1214.160156 355.027344 1212.460938 362.375 1210.808594 369.726563 C 1208.761719 374.425781 1208.550781 379.90625 1211.191406 384.40625 C 1206.25 384.675781 1201.308594 385.027344 1196.378906 385.1875 C 1193.640625 385.4375 1190.640625 382.925781 1191.128906 380.066406 C 1192.21875 373.488281 1193.921875 367.027344 1194.921875 360.4375 C 1196.210938 357.328125 1196.601563 353.96875 1196.140625 350.636719 C 1191.039063 350.308594 1185.941406 350.425781 1180.851563 350.476563 C 1179.148438 357.847656 1177.25 365.15625 1175.761719 372.558594 C 1174.761719 375.167969 1173.371094 378.605469 1175.578125 380.996094 C 1176.429688 382.085938 1176.96875 383.335938 1177.230469 384.726563 C 1171.351563 384.457031 1165.378906 385.125 1159.578125 383.988281 C 1156.570313 383.476563 1153.878906 380.335938 1154.640625 377.21875 C 1160.820313 352.726563 1166.070313 328.105469 1171.898438 303.558594 C 1171.46875 302.117188 1170.898438 300.726563 1170.449219 299.316406 "/>
<path style=" stroke:none;fill-rule:nonzero;fill:rgb(0%,0%,0%);fill-opacity:1;" d="M 846.738281 312.476563 C 850.105469 310.238281 851.90625 306.515625 854.296875 303.386719 C 855.886719 303.21875 857.488281 303.257813 859.097656 303.507813 C 859.117188 307.058594 857.808594 310.398438 856.878906 313.765625 C 861.605469 313.886719 866.347656 313.9375 871.085938 313.785156 C 872.566406 318.757813 870.378906 323.6875 869.347656 328.507813 C 865.136719 328.90625 860.90625 328.527344 856.695313 328.816406 C 854.628906 329.285156 853.148438 331.007813 851.925781 332.636719 C 850.9375 343.746094 847.097656 354.375 845.71875 365.457031 C 845.378906 366.617188 846.015625 367.636719 846.96875 368.277344 C 852.246094 368.847656 857.546875 368.238281 862.695313 366.957031 C 862.585938 371.488281 860.425781 375.566406 859.1875 379.847656 C 858.316406 383.1875 854.566406 384.417969 851.488281 384.386719 C 845.226563 384.296875 838.957031 384.46875 832.707031 384.316406 C 829.035156 384.046875 824.808594 381.257813 825.21875 377.1875 C 825.078125 374.226563 825.558594 371.277344 826.558594 368.507813 C 829.167969 355.726563 831.976563 342.988281 834.46875 330.136719 C 833.285156 329.578125 831.957031 329.277344 831.035156 328.316406 C 830.628906 324.597656 831.476563 320.867188 832.605469 317.347656 C 837.65625 317.125 842.785156 315.796875 846.738281 312.476563 "/>
<path style=" stroke:none;fill-rule:nonzero;fill:rgb(0%,0%,0%);fill-opacity:1;" d="M 617.136719 321.386719 C 620.558594 315.917969 626.785156 311.875 633.40625 312.546875 C 638.308594 312.835938 643.996094 312.96875 647.648438 316.738281 C 650.027344 318.765625 649.46875 322.167969 650.035156 324.9375 C 654.765625 321.375 657.777344 315.6875 663.496094 313.445313 C 671.378906 310.636719 682.027344 312.457031 686.136719 320.457031 C 687.308594 324.578125 686.898438 328.96875 686.398438 333.167969 C 683.117188 345.605469 680.507813 358.246094 677.558594 370.816406 C 677.21875 373.386719 676.386719 375.816406 675.296875 378.15625 C 676.757813 379.785156 678.128906 381.476563 679.398438 383.265625 C 674.746094 385.546875 669.335938 383.875 664.355469 384.398438 C 660.195313 385.136719 655.675781 381.578125 656.695313 377.167969 C 660.316406 363.738281 663.4375 350.207031 667.046875 336.738281 C 667.378906 334.867188 667.796875 332.667969 666.578125 331.027344 C 663.167969 326.46875 655.738281 326.816406 651.707031 330.335938 C 648.4375 332.816406 647.738281 337.15625 647.085938 340.945313 C 644.757813 350.988281 642.328125 361.007813 639.765625 370.976563 C 637.9375 374.875 638.597656 379.246094 638.308594 383.40625 C 632.605469 383.148438 626.867188 383.925781 621.195313 383.328125 C 619.855469 381.625 618.507813 379.425781 619.285156 377.207031 C 621.695313 366.445313 624.835938 355.855469 627.296875 345.136719 C 627.71875 340.257813 631.078125 335.4375 629.136719 330.496094 C 624.496094 325.488281 615.585938 328.808594 612.976563 334.527344 C 610.777344 339.695313 609.988281 345.328125 608.296875 350.667969 C 606.058594 359.296875 603.585938 367.835938 601.355469 376.488281 C 600.527344 378.917969 602.035156 381.246094 602.535156 383.578125 C 596.195313 384.046875 589.726563 384.308594 583.425781 383.285156 C 583.226563 380.535156 583.066406 377.746094 583.515625 375.015625 C 587.328125 360.425781 590.648438 345.636719 594.367188 331.078125 C 594.816406 327.316406 596.597656 323.855469 596.886719 320.066406 C 596.855469 317.855469 596.007813 315.777344 595.097656 313.796875 C 600.105469 313.375 605.167969 313.355469 610.1875 313.585938 C 614.136719 314.097656 615.46875 318.375 617.136719 321.386719 "/>
<path style=" stroke:none;fill-rule:nonzero;fill:rgb(0%,0%,0%);fill-opacity:1;" d="M 720.90625 330.667969 C 716.796875 333.285156 715.847656 338.578125 715.277344 343.058594 C 713.558594 350.957031 711.308594 358.746094 709.65625 366.667969 C 710.648438 367.746094 711.828125 368.90625 713.4375 368.785156 C 716.957031 368.886719 720.507813 368.996094 724.027344 368.695313 C 729.535156 366.238281 731.777344 360.066406 733.617188 354.765625 C 735.457031 350.015625 735.585938 344.898438 736.726563 339.988281 C 737.148438 335.71875 735.996094 330.117188 731.355469 328.675781 C 727.757813 327.816406 724.21875 329.488281 720.90625 330.667969 Z M 700.738281 313.847656 C 705.828125 313.675781 710.9375 313.535156 716.035156 313.777344 C 719.058594 314.105469 720.578125 316.9375 721.496094 319.507813 C 723.667969 317.296875 725.917969 314.996094 728.878906 313.847656 C 733.605469 313.496094 738.386719 313.667969 743.136719 313.757813 C 747.4375 314.667969 750.527344 318.578125 752.175781 322.445313 C 752.835938 327.476563 755.078125 332.4375 753.757813 337.578125 C 752.695313 340.988281 752.558594 344.546875 752.296875 348.078125 C 750.097656 357.566406 748.015625 367.625 741.746094 375.4375 C 738.4375 379.566406 734.058594 383.71875 728.4375 383.835938 C 721.265625 383.957031 714.085938 383.976563 706.917969 383.796875 C 706.21875 384.925781 705.117188 385.90625 704.855469 387.265625 C 704.265625 391.46875 702.628906 396.175781 705.796875 399.796875 C 700.085938 400.445313 694.308594 400.308594 688.585938 400.035156 C 686.988281 398.925781 685.757813 397.335938 684.785156 395.6875 C 684.316406 393.296875 685.617188 391.105469 686.136719 388.855469 C 691.71875 366.265625 696.558594 343.636719 702.195313 321.078125 C 702.1875 318.585938 701.136719 316.265625 700.738281 313.847656 "/>
<path style=" stroke:none;fill-rule:nonzero;fill:rgb(0%,0%,0%);fill-opacity:1;" d="M 542.105469 350.867188 C 537.355469 354.527344 536.746094 361.15625 537.738281 366.675781 C 541.597656 369.765625 546.785156 368.726563 551.355469 368.785156 C 553.886719 368.886719 555.71875 366.765625 556.976563 364.835938 C 557.566406 361.96875 558.101563 358.371094 558.46875 356.21875 C 558.765625 354.441406 559.328125 351.46875 559.296875 349.066406 C 553.605469 348.367188 547.128906 347.40625 542.105469 350.867188 Z M 539.015625 314.457031 C 539.9375 312.96875 541.925781 313.625 543.367188 313.457031 C 552.726563 313.558594 562.085938 313.445313 571.457031 313.496094 C 575.398438 313.308594 579.597656 315.617188 581.277344 319.238281 C 582.546875 325.445313 581.628906 331.9375 579.828125 337.96875 C 578.027344 346.71875 575.535156 355.296875 573.757813 364.035156 C 571.457031 370.195313 571.578125 376.886719 572.566406 383.296875 C 567.1875 383.355469 561.816406 383.597656 556.445313 383.527344 C 552.597656 382.675781 553.9375 377.996094 553.546875 375.15625 C 552.90625 375.238281 551.636719 375.398438 550.996094 375.488281 C 549.636719 378.15625 547.6875 380.636719 545.246094 382.386719 C 541.175781 384.097656 536.636719 383.15625 532.367188 383.535156 C 527.335938 384.148438 521.566406 381.96875 519.417969 377.125 C 516.527344 371.097656 518.65625 364.316406 519.847656 358.148438 C 521.757813 350.957031 525.226563 343.167969 532.316406 339.808594 C 541.246094 335.605469 551.277344 338.277344 560.695313 337.136719 C 564.21875 335.71875 563.675781 331.488281 563.207031 328.457031 C 555.667969 325.125 547.328125 328.46875 539.445313 327.445313 C 537.90625 326.96875 536.71875 325.828125 535.648438 324.695313 C 535.136719 323.167969 536.136719 321.757813 536.648438 320.398438 C 537.566406 318.457031 537.296875 315.96875 539.015625 314.457031 "/>
<path style=" stroke:none;fill-rule:nonzero;fill:rgb(0%,0%,0%);fill-opacity:1;" d="M 785.925781 349.777344 C 780.457031 351.945313 778.835938 358.476563 778.945313 363.796875 C 779.1875 367.316406 783.1875 368.988281 786.296875 368.828125 C 790.128906 368.578125 795.066406 370.027344 797.765625 366.4375 C 799.585938 360.835938 801.207031 354.558594 799.71875 348.777344 C 795.136719 348.40625 790.238281 347.867188 785.925781 349.777344 Z M 781.367188 313.6875 C 790.027344 313.195313 798.726563 313.667969 807.417969 313.488281 C 811.148438 313.605469 815.226563 312.847656 818.585938 314.945313 C 822.695313 316.875 824.496094 321.746094 823.925781 326.066406 C 822.96875 332.71875 821.167969 339.21875 819.90625 345.816406 C 818.136719 349.105469 818.808594 352.957031 817.417969 356.347656 C 816.378906 359.027344 816.496094 361.96875 815.816406 364.738281 C 814.917969 368.1875 813.808594 371.605469 813.226563 375.148438 C 813.378906 377.746094 814.175781 380.265625 814.367188 382.875 C 808.40625 383.765625 802.335938 383.546875 796.347656 383.40625 C 796.128906 380.285156 796.136719 377.175781 795.90625 374.066406 C 791.585938 375.027344 791.175781 380.675781 787.246094 382.40625 C 782.835938 384.136719 777.976563 383.136719 773.367188 383.558594 C 768.976563 384.066406 764.445313 382.136719 761.925781 378.476563 C 760.628906 375.148438 759.929688 370.5625 760.078125 367.875 C 760.199219 365.65625 761.308594 361.320313 761.71875 359.136719 C 762.402344 355.453125 764.546875 349.398438 767.636719 345.367188 C 770.976563 340.617188 776.6875 338.1875 782.296875 337.507813 C 788.9375 337.046875 795.636719 337.808594 802.265625 337.175781 C 806.007813 336.398438 805.628906 332.246094 805.265625 329.316406 C 803.636719 327.367188 800.898438 326.90625 798.496094 326.96875 C 793.128906 327.21875 787.746094 327.605469 782.378906 327.546875 C 779.726563 327.535156 776.738281 325.527344 777.628906 322.566406 C 778.535156 319.546875 778.925781 315.875 781.367188 313.6875 "/>
<path style=" stroke:none;fill-rule:nonzero;fill:rgb(0%,0%,0%);fill-opacity:1;" d="M 1044.800781 349.398438 C 1038.519531 351.457031 1036.300781 359.148438 1037.128906 365.097656 C 1039.359375 370.277344 1046.050781 368.597656 1050.539063 368.816406 C 1053.578125 369.175781 1055.949219 366.566406 1056.558594 363.796875 C 1057.738281 358.875 1059.480469 353.835938 1058.601563 348.71875 C 1054.011719 348.65625 1049.210938 347.808594 1044.800781 349.398438 Z M 1036 323.875 C 1036.140625 320.277344 1037.570313 316.71875 1039.449219 313.707031 C 1049.761719 313.175781 1060.109375 313.65625 1070.441406 313.46875 C 1075.46875 313.066406 1081.039063 316.285156 1082 321.496094 C 1083.019531 327.597656 1080.808594 333.578125 1079.570313 339.476563 C 1076.960938 350.6875 1074.140625 361.808594 1071.671875 373.058594 C 1071.261719 376.527344 1072.328125 379.96875 1071.960938 383.4375 C 1066.488281 383.175781 1061 383.835938 1055.570313 383.40625 C 1051.769531 381.796875 1054 376.855469 1053.121094 373.726563 C 1049.109375 375.65625 1048.828125 381.386719 1044.390625 382.6875 C 1040.160156 383.957031 1035.671875 383.21875 1031.339844 383.566406 C 1026.28125 384.058594 1021.089844 381.265625 1018.761719 376.765625 C 1017.109375 368.558594 1018.949219 360.148438 1021.769531 352.40625 C 1024.199219 345.988281 1029.191406 339.847656 1036.191406 338.398438 C 1043.699219 336.308594 1051.621094 338.015625 1059.289063 337.257813 C 1062.019531 337.105469 1063.101563 334.265625 1064.039063 332.125 C 1063.648438 329.46875 1061.320313 327.035156 1058.511719 327.007813 C 1052.46875 326.667969 1046.449219 327.816406 1040.421875 327.566406 C 1038.421875 327.488281 1035.921875 326.148438 1036 323.875 "/>
<path style=" stroke:none;fill-rule:nonzero;fill:rgb(0%,0%,0%);fill-opacity:1;" d="M 1095.121094 313.667969 C 1100.199219 313.476563 1105.308594 313.285156 1110.390625 313.648438 C 1114.128906 314.785156 1115.539063 318.996094 1116.289063 322.476563 C 1120.121094 318.007813 1125.671875 314.808594 1131.441406 313.578125 C 1138.320313 313.597656 1146.621094 312.148438 1151.96875 317.566406 C 1155.128906 320.648438 1154.558594 325.15625 1154.390625 329.175781 C 1151.511719 339.308594 1149.519531 349.765625 1146.589844 359.945313 C 1144.730469 366.007813 1143.890625 372.355469 1141.648438 378.296875 C 1141.039063 380.167969 1142.328125 381.855469 1143.199219 383.417969 C 1138.71875 384.828125 1134 384.328125 1129.398438 384.386719 C 1127.289063 384.515625 1124.789063 383.625 1124.078125 381.457031 C 1123.050781 379.015625 1124.019531 376.40625 1124.488281 373.976563 C 1127.628906 360.945313 1131.140625 348.097656 1134.171875 335.066406 C 1135 331.765625 1131.570313 329.636719 1128.96875 328.597656 C 1122.898438 327.226563 1115.351563 329.15625 1112.378906 335.066406 C 1110.308594 338.328125 1110.570313 342.328125 1109.019531 345.796875 C 1107.019531 355.945313 1103.460938 365.726563 1101.171875 375.816406 C 1100.398438 378.265625 1101.191406 380.71875 1102.160156 382.976563 C 1102.03125 383.308594 1101.769531 383.976563 1101.640625 384.316406 C 1097.261719 384.355469 1092.890625 384.4375 1088.53125 384.355469 C 1085.621094 384.355469 1081.761719 382.625 1082.441406 379.105469 C 1082.871094 374.757813 1084.339844 370.527344 1085.601563 366.355469 C 1088.121094 355.007813 1091.078125 343.695313 1093.941406 332.398438 C 1096.261719 326.46875 1096.488281 319.855469 1095.121094 313.667969 "/>
<path style=" stroke:none;fill-rule:nonzero;fill:rgb(0%,0%,0%);fill-opacity:1;" d="M 525.308594 86.683594 C 523.15625 90.011719 519.4375 91.675781 514.15625 91.675781 C 510.820313 91.675781 508.140625 90.976563 506.109375 89.578125 C 504.078125 88.019531 502.9375 86.496094 502.695313 85.011719 C 502.289063 83.699219 502.085938 82.546875 502.085938 81.558594 L 502.085938 68.339844 L 487.648438 68.339844 L 487.648438 74.113281 L 487.285156 79.640625 C 486.800781 81.851563 486.191406 83.816406 485.464844 85.535156 C 484.734375 87.257813 483.402344 88.710938 481.460938 89.898438 C 479.519531 91.082031 477.253906 91.675781 474.664063 91.675781 L 473.210938 91.675781 C 468.273438 91.675781 464.835938 90.164063 462.894531 87.136719 C 460.953125 84.109375 459.984375 80.550781 459.984375 76.457031 L 459.984375 74.003906 L 460.589844 70.8125 C 460.910156 69.667969 461.257813 68.667969 461.621094 67.808594 C 461.984375 66.949219 462.328125 66.230469 462.652344 65.660156 C 463.703125 64.105469 464.957031 62.714844 466.414063 61.484375 C 468.355469 60.015625 470.214844 59.15625 471.996094 58.910156 L 515.800781 58.910156 L 519.4375 59.273438 C 521.21875 59.597656 522.957031 60.980469 524.65625 63.417969 C 526.675781 66.015625 527.8125 68.453125 528.054688 70.726563 L 528.539063 75.351563 C 528.539063 79.578125 527.460938 83.355469 525.308594 86.683594 Z M 470.175781 42.625 C 470.828125 42.195313 471.925781 41.980469 473.476563 41.980469 C 474.457031 41.980469 475.3125 42.0625 476.046875 42.230469 C 476.777344 42.394531 477.59375 42.601563 478.492188 42.851563 C 480.367188 43.597656 481.550781 44.175781 482.039063 44.589844 C 482.855469 45.089844 483.628906 45.957031 484.359375 47.199219 C 485.257813 48.359375 485.707031 49.605469 485.707031 50.929688 L 470.175781 50.929688 C 471.710938 49.855469 472.480469 48.53125 472.480469 46.960938 C 472.480469 44.566406 471.710938 43.121094 470.175781 42.625 Z M 506.636719 44.652344 C 508.699219 42.871094 511.023438 41.980469 513.613281 41.980469 C 516.445313 41.980469 518.851563 42.601563 520.835938 43.84375 C 522.816406 45.089844 523.808594 46.496094 523.808594 48.070313 C 523.726563 49.3125 523.441406 50.265625 522.957031 50.929688 L 503.542969 50.929688 C 503.542969 48.523438 504.574219 46.433594 506.636719 44.652344 Z M 536.910156 69.945313 C 536.34375 67.117188 535.496094 64.570313 534.363281 62.308594 C 532.824219 59.480469 531.410156 57.539063 530.117188 56.488281 C 532.058594 55.109375 533.191406 54.179688 533.515625 53.691406 C 534.242188 52.472656 534.605469 51.214844 534.605469 49.914063 L 534.605469 48.335938 C 534.605469 45.449219 533.617188 42.871094 531.644531 40.601563 C 529.667969 38.335938 527.710938 36.828125 525.773438 36.085938 C 524 35.179688 522.265625 34.726563 520.570313 34.726563 C 519.765625 34.726563 518.355469 34.726563 516.339844 34.726563 C 512.144531 34.726563 508.515625 35.21875 505.453125 36.199219 C 502.304688 37.34375 499.96875 39.042969 498.4375 41.292969 C 496.902344 43.546875 495.652344 46.757813 494.6875 50.929688 C 493.714844 43.402344 491.167969 38.980469 487.042969 37.671875 C 484.855469 36.9375 483.078125 36.382813 481.703125 36.015625 C 480.324219 35.648438 479.03125 35.339844 477.820313 35.09375 C 476.605469 34.847656 474.824219 34.726563 472.480469 34.726563 C 471.023438 34.726563 469.507813 34.847656 467.929688 35.09375 C 466.355469 35.335938 464.996094 35.617188 463.867188 35.945313 C 461.113281 36.757813 459.253906 37.730469 458.285156 38.867188 L 456.34375 41.183594 L 455.613281 43.011719 L 455.25 45.8125 C 455.25 47.191406 455.492188 48.351563 455.980469 49.285156 C 456.464844 50.21875 457.070313 50.765625 457.800781 50.929688 L 451.003906 50.6875 L 451.003906 58.910156 L 457.921875 58.910156 C 456.382813 59.640625 454.886719 60.980469 453.429688 62.929688 C 451.976563 64.878906 450.800781 67.195313 449.910156 69.871094 C 449.019531 72.550781 448.578125 75.597656 448.578125 79.007813 C 448.578125 81.28125 449.101563 85.136719 450.15625 90.578125 C 451.367188 95.695313 454.058594 99.9375 458.222656 103.308594 C 462.390625 106.679688 467.140625 108.363281 472.480469 108.363281 C 478.222656 108.363281 482.855469 107.539063 486.375 105.886719 C 489.894531 104.234375 492.378906 101.636719 493.835938 98.085938 C 494.96875 102.003906 497.3125 104.695313 500.875 106.160156 C 504.757813 107.628906 508.4375 108.363281 511.914063 108.363281 L 513.371094 108.363281 C 518.628906 108.363281 523.421875 106.464844 527.75 102.667969 C 532.078125 98.871094 534.828125 94.648438 536 90.003906 C 537.171875 85.355469 537.761719 81.335938 537.761719 77.941406 C 537.761719 76.648438 537.679688 75.316406 537.519531 73.945313 C 537.355469 72.570313 537.152344 71.234375 536.910156 69.945313 "/>
<path style=" stroke:none;fill-rule:nonzero;fill:rgb(0%,0%,0%);fill-opacity:1;" d="M 586.113281 54.496094 C 585.261719 55.101563 584.394531 55.402344 583.503906 55.402344 C 582.207031 55.402344 581.257813 55 580.652344 54.191406 C 580.046875 53.386719 579.742188 52.542969 579.742188 51.652344 C 579.742188 50.363281 580.265625 49.316406 581.320313 48.511719 C 582.207031 48.027344 582.976563 47.785156 583.625 47.785156 C 585.082031 47.785156 586.070313 48.230469 586.597656 49.113281 C 587.121094 50.003906 587.386719 50.808594 587.386719 51.53125 C 587.386719 52.90625 586.960938 53.890625 586.113281 54.496094 Z M 623.425781 56.046875 C 622.773438 51.445313 621.886719 47.855469 620.753906 45.269531 C 619.136719 41.960938 617.601563 39.617188 616.144531 38.246094 L 613.230469 35.824219 L 609.835938 33.644531 C 607.488281 32.109375 604.535156 30.980469 600.976563 30.253906 C 597.65625 29.445313 594.34375 29.042969 591.027344 29.042969 L 569.550781 29.042969 L 566.636719 27.664063 C 565.585938 27.078125 565.058594 26.410156 565.058594 25.660156 C 565.304688 24.738281 565.746094 24.113281 566.394531 23.777344 C 567.769531 22.695313 569.914063 22.148438 572.824219 22.148438 L 586.414063 22.148438 C 594.746094 22.148438 600.753906 22.996094 604.433594 24.691406 C 608.113281 26.382813 610.441406 29.285156 611.410156 33.394531 L 620.632813 33.273438 C 620.632813 30.371094 619.621094 27.441406 617.601563 24.476563 C 615.578125 21.511719 613.394531 19.324219 611.046875 17.910156 C 608.863281 16.339844 605.546875 15.082031 601.097656 14.140625 C 599.074219 13.667969 597.65625 13.394531 596.851563 13.3125 C 596.039063 13.238281 595.03125 13.117188 593.816406 12.960938 L 585.929688 12.355469 L 572.824219 12.960938 L 565.910156 12.960938 C 564.289063 12.960938 562.9375 13.042969 561.84375 13.203125 C 560.753906 13.367188 559.457031 13.671875 557.960938 14.117188 C 556.464844 14.566406 555.191406 15.273438 554.140625 16.25 C 552.199219 17.957031 551.226563 19.660156 551.226563 21.367188 C 551.226563 23.316406 552.054688 24.898438 553.714844 26.117188 C 555.371094 27.335938 557.050781 28.308594 558.75 29.039063 L 554.503906 29.40625 L 550.984375 29.164063 L 551.105469 36.175781 L 574.570313 36.175781 C 585.59375 36.175781 593.351563 36.824219 597.851563 38.109375 C 602.347656 39.402344 605.652344 41.519531 607.761719 44.460938 C 609.867188 47.402344 611.246094 50.183594 611.894531 52.800781 C 612.542969 55.421875 612.867188 59.753906 612.867188 65.800781 C 612.867188 67.171875 612.542969 68.824219 611.894531 70.757813 L 610.191406 75.109375 L 608.246094 79.101563 C 606.464844 82.328125 603.222656 85.1875 598.519531 87.6875 C 593.816406 90.1875 588.46875 91.433594 582.46875 91.433594 C 575.824219 91.433594 569.804688 89.5625 564.414063 85.8125 C 559.023438 82.0625 555.84375 78.335938 554.871094 74.628906 L 553.410156 67.855469 L 553.289063 64.953125 L 553.53125 61.933594 L 554.382813 57.578125 C 554.867188 55.644531 555.597656 54.070313 556.566406 52.863281 C 557.859375 51.574219 559.03125 50.929688 560.085938 50.929688 C 560.894531 50.929688 561.640625 51.289063 562.328125 52.015625 C 563.015625 52.742188 563.359375 53.46875 563.359375 54.191406 L 562.269531 57.457031 L 561.421875 59.875 L 561.421875 62.65625 C 561.421875 64.832031 561.78125 66.851563 562.507813 68.703125 C 563.234375 70.558594 564.121094 72.089844 565.171875 73.296875 C 567.667969 76.28125 570.308594 78.15625 573.09375 78.921875 C 575.875 79.6875 578.839844 80.070313 581.988281 80.070313 C 584.246094 80.070313 586.464844 79.828125 588.640625 79.34375 C 590.980469 78.699219 593.15625 77.730469 595.175781 76.441406 C 597.351563 74.828125 599.164063 72.613281 600.617188 69.789063 C 602.070313 66.40625 602.796875 63.101563 602.796875 59.875 C 602.796875 49.960938 600.53125 44.035156 596 42.101563 C 591.46875 40.167969 587.828125 39.199219 585.082031 39.199219 C 580.875 39.199219 578.042969 39.925781 576.585938 41.375 C 574.96875 42.746094 573.796875 44.277344 573.066406 45.972656 C 572.339844 47.664063 571.976563 49.839844 571.976563 52.5 L 572.824219 56.488281 C 573.632813 57.941406 574.523438 59.109375 575.496094 59.996094 C 576.464844 60.886719 577.476563 61.53125 578.527344 61.933594 C 579.578125 62.335938 580.589844 62.535156 581.5625 62.535156 L 584.351563 62.535156 C 585.402344 62.535156 586.394531 62.417969 587.324219 62.179688 C 588.253906 61.945313 589.164063 61.628906 590.054688 61.234375 C 591.996094 60.207031 593.167969 58.746094 593.574219 56.851563 L 593.9375 58.886719 C 593.9375 61.28125 592.886719 63.433594 590.785156 65.347656 C 588.679688 67.261719 586.011719 68.21875 582.773438 68.21875 C 579.378906 68.21875 576.425781 67.671875 573.917969 66.570313 C 571.410156 65.472656 570.15625 64.128906 570.15625 62.535156 L 570.15625 59.601563 L 570.640625 57.15625 C 570.964844 56.261719 571.128906 55.242188 571.128906 54.101563 L 571.128906 52.023438 L 570.640625 48.96875 C 570.398438 47.824219 569.871094 46.605469 569.0625 45.300781 C 568.253906 43.996094 566.980469 42.855469 565.242188 41.875 C 563.5 40.898438 561.542969 40.40625 559.355469 40.40625 L 556.566406 40.769531 L 554.140625 41.738281 C 551.957031 43.03125 550.335938 44.203125 549.285156 45.253906 C 546.132813 48.890625 544.191406 52.019531 543.460938 54.644531 C 542.734375 57.265625 542.25 59.789063 542.007813 62.214844 L 541.640625 68.996094 C 541.640625 72.390625 542.167969 76.464844 543.21875 81.230469 C 544.433594 85.589844 546.574219 89.933594 549.648438 94.253906 C 552.722656 98.574219 557.355469 102.007813 563.542969 104.550781 C 569.730469 107.09375 576.304688 108.363281 583.261719 108.363281 C 590.863281 108.363281 596.910156 107.132813 601.402344 104.671875 C 605.890625 102.207031 609.347656 99.867188 611.773438 97.648438 C 614.203125 95.425781 616.222656 92.78125 617.84375 89.714844 C 619.703125 86.726563 621.117188 83.378906 622.089844 79.664063 C 622.734375 77.644531 623.121094 76.414063 623.242188 75.96875 C 623.363281 75.527344 623.503906 74.820313 623.667969 73.847656 C 623.828125 72.882813 624.03125 71.792969 624.273438 70.582031 C 624.273438 69.691406 624.273438 68.761719 624.273438 67.792969 C 624.273438 66.101563 624.191406 64.285156 624.03125 62.34375 C 623.867188 60.410156 623.667969 58.308594 623.425781 56.046875 "/>
<path style=" stroke:none;fill-rule:nonzero;fill:rgb(0%,0%,0%);fill-opacity:1;" d="M 694.707031 86.738281 C 689.003906 90.03125 681.5 91.675781 672.199219 91.675781 C 667.589844 91.675781 663.382813 91.316406 659.582031 90.589844 C 655.617188 89.703125 652.339844 88.695313 649.753906 87.566406 C 644.089844 84.664063 641.257813 79.707031 641.257813 72.691406 C 641.257813 66.96875 643.402344 63.304688 647.691406 61.691406 C 651.976563 60.078125 660.265625 59.273438 672.5625 59.273438 L 683.242188 59.273438 C 690.277344 59.273438 695.375 60.035156 698.53125 61.5625 C 701.683594 63.089844 703.261719 66.5 703.261719 71.800781 C 703.261719 78.46875 700.410156 83.445313 694.707031 86.738281 Z M 652.421875 41.738281 C 655.089844 41.738281 657.398438 42.464844 659.339844 43.914063 C 660.390625 44.722656 661.035156 45.609375 661.28125 46.574219 C 661.683594 47.625 661.886719 49.035156 661.886719 50.808594 L 650.84375 50.808594 C 651.976563 50.242188 652.542969 49.113281 652.542969 47.414063 C 652.542969 44.992188 651.574219 43.21875 649.632813 42.089844 Z M 685.183594 45.125 C 687.042969 43.671875 689.308594 42.949219 691.976563 42.949219 L 694.285156 42.949219 L 698.167969 44.257813 C 699.945313 45.136719 700.835938 46.753906 700.835938 49.113281 L 700.472656 50.808594 L 683.242188 50.808594 C 683.242188 48.308594 683.886719 46.414063 685.183594 45.125 Z M 708.359375 58.0625 C 710.300781 57.246094 711.714844 55.945313 712.605469 54.152344 C 713.496094 52.363281 713.941406 50.527344 713.941406 48.652344 C 713.941406 46.617188 713.210938 44.5 711.757813 42.300781 C 710.300781 39.855469 707.996094 38.023438 704.839844 36.800781 C 701.765625 35.417969 698.085938 34.726563 693.796875 34.726563 C 689.105469 34.726563 684.941406 35.585938 681.300781 37.308594 C 679.519531 38.128906 677.761719 39.460938 676.023438 41.304688 C 674.28125 43.148438 673.050781 45.753906 672.320313 49.113281 C 671.59375 44.886719 669.488281 41.433594 666.011719 38.75 C 662.53125 36.066406 657.800781 34.726563 651.816406 34.726563 C 647.609375 34.726563 643.90625 36.023438 640.714844 38.617188 C 637.515625 41.214844 635.921875 44.132813 635.921875 47.375 C 635.921875 49.15625 636.203125 50.699219 636.769531 51.996094 C 637.496094 53.292969 638.75 54.511719 640.53125 55.644531 C 635.597656 58.058594 632.402344 60.992188 630.945313 64.449219 C 630.21875 66.140625 629.691406 67.890625 629.367188 69.699219 C 629.042969 71.507813 628.882813 73.257813 628.882813 74.945313 L 628.882813 76.394531 C 628.882813 82.425781 630.097656 87.691406 632.523438 92.195313 C 635.191406 96.699219 638.242188 99.898438 641.683594 101.785156 C 645.121094 103.675781 648.335938 105.105469 651.328125 106.070313 L 655.457031 107.152344 C 656.261719 107.316406 656.949219 107.394531 657.519531 107.394531 L 658.972656 107.394531 L 666.980469 107.878906 L 674.382813 108.363281 L 676.933594 108.363281 L 682.757813 107.757813 L 689.429688 106.550781 C 690.402344 106.230469 691.855469 105.746094 693.796875 105.097656 C 696.386719 104.214844 698.207031 103.527344 699.257813 103.042969 C 703.464844 101.191406 707.003906 98.53125 709.875 95.0625 C 712.746094 91.597656 714.546875 87.988281 715.273438 84.242188 C 716.003906 80.492188 716.367188 77.652344 716.367188 75.714844 C 716.367188 67.332031 713.699219 61.449219 708.359375 58.0625 "/>
<path style=" stroke:none;fill-rule:nonzero;fill:rgb(0%,0%,0%);fill-opacity:1;" d="M 767.191406 63.683594 C 770.03125 66.546875 771.453125 70.960938 771.453125 76.925781 C 771.453125 80.714844 769.910156 84.121094 766.828125 87.144531 C 763.742188 90.164063 758.75 91.675781 751.851563 91.675781 C 747.46875 91.675781 743.453125 90.671875 739.800781 88.652344 C 736.390625 86.316406 734.6875 83.617188 734.6875 80.554688 C 734.6875 79.425781 734.929688 78.175781 735.414063 76.804688 L 730.078125 76.925781 L 749.425781 59.996094 C 750.480469 59.59375 751.535156 59.390625 752.589844 59.390625 L 755.269531 59.390625 C 760.378906 59.390625 764.351563 60.824219 767.191406 63.683594 Z M 734.429688 49.355469 L 732.988281 49.476563 C 733.71875 47.867188 734.425781 46.65625 735.113281 45.851563 C 735.800781 45.046875 736.871094 44.519531 738.328125 44.277344 L 741.847656 43.792969 C 744.03125 43.792969 745.527344 44.277344 746.335938 45.246094 C 747.144531 46.210938 747.671875 47.222656 747.914063 48.269531 L 746.5 49.355469 L 744.5 51.171875 L 741.675781 54.3125 L 740.027344 56.609375 L 740.027344 54.796875 C 740.027344 54.152344 739.902344 53.589844 739.660156 53.105469 C 739.496094 52.460938 739.132813 51.894531 738.566406 51.410156 C 737.835938 50.527344 737.269531 50.042969 736.863281 49.960938 C 736.210938 49.558594 735.398438 49.355469 734.429688 49.355469 Z M 797.902344 18.644531 L 800.878906 18.644531 C 801.75 18.644531 802.484375 18.90625 803.078125 19.429688 C 803.675781 19.953125 803.972656 20.578125 803.972656 21.304688 C 803.972656 23.402344 802.980469 24.445313 800.996094 24.445313 C 799.570313 24.445313 798.539063 23.925781 797.902344 22.875 Z M 810.648438 60.964844 L 809.679688 55.160156 C 808.949219 51.855469 806.160156 47.90625 801.316406 43.3125 C 800.136719 42.136719 799 41.105469 797.902344 40.207031 L 797.902344 29.042969 C 799.28125 30.011719 800.9375 30.492188 802.878906 30.492188 L 805.304688 30.492188 L 807.488281 29.882813 C 809.109375 29.3125 810.300781 28.394531 811.070313 27.128906 C 811.839844 25.863281 812.222656 23.679688 812.222656 20.578125 L 811.863281 16.65625 C 811.546875 15.109375 811.148438 14.046875 810.671875 13.472656 C 809.796875 12.414063 809.082031 11.761719 808.523438 11.515625 C 807.96875 11.269531 806.933594 11.148438 805.421875 11.148438 L 803.273438 11.148438 C 801.445313 11.148438 800.171875 11.628906 799.453125 12.597656 L 797.902344 15.378906 L 797.902344 11.628906 L 786.132813 11.628906 L 786.132813 25.292969 L 790.015625 25.292969 L 790.015625 35.992188 C 789.410156 35.878906 788.8125 35.8125 788.226563 35.8125 L 781.320313 34.726563 L 779.136719 34.726563 C 776.140625 34.726563 773.0625 34.96875 769.910156 35.449219 C 766.265625 36.175781 763.433594 36.945313 761.410156 37.746094 L 758.253906 39.199219 L 755.339844 41.011719 C 753.878906 39.078125 751.957031 37.730469 749.570313 36.960938 C 747.179688 36.195313 744.449219 35.8125 741.375 35.8125 C 735.949219 35.8125 731.660156 37.628906 728.503906 41.253906 C 725.34375 44.882813 723.769531 48.550781 723.769531 52.257813 C 723.769531 55.402344 724.453125 57.902344 725.824219 59.753906 C 727.359375 61.609375 729.335938 62.535156 731.761719 62.535156 C 732.8125 62.535156 734.023438 62.285156 735.394531 61.785156 L 722.574219 73.679688 L 722.554688 82.488281 L 728.257813 82.488281 C 726.71875 84.585938 725.953125 87.164063 725.953125 90.226563 C 725.953125 92.726563 726.394531 94.984375 727.285156 96.996094 C 728.257813 98.851563 729.59375 100.585938 731.289063 102.195313 C 732.988281 103.808594 735.375 105.21875 738.449219 106.429688 C 740.066406 107.074219 741.847656 107.515625 743.789063 107.757813 C 745.730469 108 747.992188 108.121094 750.582031 108.121094 L 752.765625 108.121094 L 759.199219 107.394531 C 763 106.671875 766.152344 105.785156 768.664063 104.734375 C 771.816406 103.285156 774.242188 101.59375 775.941406 99.65625 C 777.882813 97.722656 779.441406 95.144531 780.613281 91.917969 C 781.785156 88.695313 782.375 86.597656 782.375 85.632813 L 782.859375 82.367188 L 782.859375 79.222656 C 782.859375 76.804688 782.617188 74.386719 782.132813 71.96875 C 781.644531 69.550781 780.9375 67.234375 780.007813 65.015625 C 779.078125 62.800781 777.964844 60.886719 776.671875 59.273438 C 775.375 57.660156 773.777344 56.429688 771.878906 55.582031 C 769.976563 54.738281 768.378906 54.3125 767.085938 54.3125 C 766.4375 54.152344 765.507813 54.070313 764.292969 54.070313 L 761.382813 54.070313 L 765.023438 52.742188 C 766.316406 52.097656 768.097656 51.652344 770.359375 51.410156 C 771.574219 51.089844 772.746094 50.929688 773.878906 50.929688 L 777.15625 50.808594 C 779.257813 50.808594 781.34375 51.070313 783.40625 51.59375 C 785.46875 52.117188 787.851563 53.128906 790.5625 54.625 C 793.273438 56.121094 795.355469 59.011719 796.8125 63.304688 C 797.460938 64.839844 797.90625 66.117188 798.148438 67.128906 C 798.390625 68.140625 798.632813 69.398438 798.875 70.894531 C 799.117188 72.394531 799.238281 74.679688 799.238281 77.757813 L 799.238281 82.617188 L 798.507813 86.621094 C 797.605469 89.621094 796.40625 91.867188 794.894531 93.363281 C 793.386719 94.863281 791.671875 96.15625 789.757813 97.25 C 787.839844 98.34375 785.941406 99.011719 784.066406 99.253906 L 777.09375 99.621094 L 777.09375 108.121094 C 784.445313 108.121094 790.417969 107.394531 795.019531 105.945313 C 799.625 104.492188 803.21875 101.796875 805.800781 97.84375 C 808.386719 93.894531 810.039063 90.390625 810.769531 87.324219 C 811.65625 84.34375 812.101563 80.792969 812.101563 76.683594 C 812.101563 73.378906 811.859375 69.789063 811.375 65.921875 L 810.648438 60.964844 "/>
<path style=" stroke:none;fill-rule:nonzero;fill:rgb(0%,0%,0%);fill-opacity:1;" d="M 889.636719 71.53125 C 888.664063 73.214844 887.894531 74.898438 887.328125 76.585938 C 887.003906 78.109375 886.84375 79.59375 886.84375 81.035156 C 885.695313 79.828125 884.324219 78.902344 882.730469 78.253906 C 881.132813 77.609375 879.433594 77.289063 877.636719 77.289063 C 876.488281 77.289063 875.339844 77.535156 874.195313 78.023438 L 872.601563 78.882813 C 871.125 79.867188 870.019531 80.847656 869.285156 81.828125 C 868.382813 82.8125 867.8125 83.960938 867.566406 85.269531 L 866.339844 82.125 C 866.339844 81.480469 866.339844 80.3125 866.339844 78.617188 L 866.339844 73.660156 C 866.339844 68.261719 868.183594 64.089844 871.878906 61.144531 C 875.574219 58.203125 879.855469 56.730469 884.730469 56.730469 C 887.085938 56.730469 889.316406 57.09375 891.429688 57.816406 C 893.539063 58.535156 895.222656 59.601563 896.480469 61.003906 C 897.742188 62.40625 898.371094 64.113281 898.371094 66.117188 C 894.730469 66.117188 891.820313 67.921875 889.636719 71.53125 Z M 880.65625 93.007813 C 880.332031 93.8125 879.804688 94.359375 879.078125 94.640625 C 878.351563 94.921875 877.539063 95.0625 876.652344 95.0625 C 875.355469 95.0625 874.226563 94.691406 873.253906 93.945313 C 872.28125 93.035156 871.796875 92.121094 871.796875 91.210938 C 871.796875 89.886719 872.242188 88.6875 873.132813 87.609375 C 874.265625 86.53125 875.4375 85.992188 876.652344 85.992188 L 878.59375 86.5 L 880.050781 87.640625 C 880.855469 88.824219 881.261719 90.046875 881.261719 91.316406 Z M 929.402344 29.527344 C 926.316406 26.140625 921.976563 23.21875 916.378906 20.761719 C 910.78125 18.300781 904.777344 17.070313 898.371094 17.070313 L 891.835938 17.433594 L 881.917969 19.367188 C 877.320313 20.335938 872.460938 22.996094 867.335938 27.351563 C 862.214844 31.703125 858.5625 37.105469 856.386719 43.550781 L 867.207031 43.550781 C 868.339844 39.441406 871.457031 35.570313 876.5625 31.945313 C 881.667969 28.316406 886.488281 26.503906 891.027344 26.503906 C 902.695313 26.503906 911.425781 29.085938 917.21875 34.242188 C 923.011719 39.402344 926.394531 44.722656 927.367188 50.203125 L 928.707031 57.214844 L 929.070313 59.996094 L 929.070313 63.382813 C 929.070313 69.75 927.8125 75.695313 925.308594 81.21875 C 922.800781 86.738281 919.484375 89.984375 915.359375 90.953125 L 911.597656 91.316406 L 908.078125 90.953125 L 904.921875 90.105469 C 902.820313 89.058594 901.28125 87.6875 900.3125 85.992188 C 899.34375 83.816406 898.855469 82.046875 898.855469 80.671875 C 898.855469 78.496094 899.664063 76.402344 901.28125 74.386719 L 904.074219 71.726563 C 904.964844 70.839844 905.894531 70.394531 906.863281 70.394531 L 910.625 69.910156 L 910.746094 67.371094 C 910.746094 63.019531 909.792969 58.949219 907.882813 55.160156 C 905.972656 51.371094 903.007813 48.511719 898.984375 46.574219 C 894.960938 44.640625 890.675781 43.671875 886.125 43.671875 C 883.851563 43.671875 881.25 43.914063 878.324219 44.398438 C 875.398438 44.878906 872.796875 45.984375 870.523438 47.710938 C 868.246094 49.4375 866.09375 51.667969 864.0625 54.398438 C 862.925781 55.921875 862.007813 57.269531 861.320313 58.433594 C 860.628906 59.597656 860.039063 60.765625 859.550781 61.929688 C 859.066406 63.09375 858.71875 64.234375 858.515625 65.359375 C 858.3125 66.488281 858.128906 67.488281 857.96875 68.375 L 857.359375 71.023438 L 857.359375 83.136719 L 858.816406 91.546875 C 859.785156 95.769531 861.96875 99.589844 865.367188 103.003906 C 868.765625 106.414063 872.769531 108.121094 877.378906 108.121094 C 879.078125 108.121094 880.898438 107.878906 882.839844 107.390625 C 885.023438 106.65625 886.800781 105.472656 888.179688 103.84375 C 889.796875 102.128906 890.726563 99.929688 890.96875 97.238281 L 893.273438 101.109375 L 896.308594 104.253906 C 897.441406 105.382813 899.523438 106.308594 902.558594 107.03125 C 905.589844 107.757813 908.601563 108.121094 911.597656 108.121094 L 917.664063 107.636719 C 920.171875 107.074219 922.820313 106.109375 925.609375 104.734375 C 928.402344 103.367188 931.152344 100.765625 933.863281 96.9375 C 936.570313 93.109375 938.429688 89.117188 939.445313 84.964844 C 940.453125 80.816406 940.960938 78.175781 940.960938 77.046875 C 940.960938 76.242188 940.960938 75.191406 940.960938 73.902344 L 940.960938 59.753906 C 940.960938 54.757813 939.804688 49.316406 937.492188 43.429688 C 935.179688 37.546875 932.484375 32.910156 929.402344 29.527344 "/>
<path style=" stroke:none;fill-rule:nonzero;fill:rgb(0%,0%,0%);fill-opacity:1;" d="M 972.871094 86.960938 L 973.355469 89.015625 L 973.355469 91.554688 C 973.195313 92.929688 972.910156 94.257813 972.507813 95.546875 C 971.699219 96.835938 970.28125 97.480469 968.261719 97.480469 C 965.753906 97.480469 963.894531 96.433594 962.679688 94.335938 C 961.949219 93.128906 961.445313 92.160156 961.160156 91.433594 C 960.878906 90.710938 960.695313 89.945313 960.617188 89.136719 L 960.011719 85.390625 L 960.011719 81.882813 L 961.34375 71.605469 C 961.585938 69.832031 962.195313 67.855469 963.164063 65.679688 L 967.046875 58.910156 L 971.777344 52.378906 L 976.269531 46.9375 L 976.511719 44.761719 L 976.269531 38.472656 L 947.632813 38.472656 L 947.632813 47.90625 L 962.195313 47.90625 L 955.761719 55.765625 C 953.65625 58.585938 951.433594 62.292969 949.089844 66.890625 C 947.792969 69.46875 946.742188 71.96875 945.933594 74.386719 C 945.449219 75.835938 945.164063 76.90625 945.085938 77.589844 C 945.003906 78.277344 944.964844 79.34375 944.964844 80.792969 C 944.640625 82.648438 944.480469 83.859375 944.480469 84.421875 C 944.480469 84.988281 944.480469 85.710938 944.480469 86.597656 L 944.355469 90.226563 C 945.164063 95.710938 946.136719 99.535156 947.269531 101.714844 C 948.402344 103.890625 949.898438 105.785156 951.757813 107.394531 C 953.617188 109.007813 955.703125 110.257813 958.007813 111.144531 C 960.3125 112.03125 962.71875 112.476563 965.226563 112.476563 C 967.246094 112.476563 969.269531 112.03125 971.292969 111.144531 C 973.476563 110.339844 975.339844 109.371094 976.875 108.242188 C 978.410156 107.113281 979.667969 105.039063 980.636719 102.015625 C 981.609375 98.992188 982.09375 96.109375 982.09375 93.371094 C 982.09375 90.710938 981.609375 88.574219 980.636719 86.960938 L 972.871094 86.960938 "/>
<path style=" stroke:none;fill-rule:nonzero;fill:rgb(0%,0%,0%);fill-opacity:1;" d="M 1023.769531 78.679688 C 1022.269531 80.816406 1020.390625 82.367188 1018.128906 83.332031 C 1015.859375 84.300781 1013.679688 84.785156 1011.578125 84.785156 C 1006.890625 84.785156 1003.328125 83.355469 1000.898438 80.492188 C 998.472656 77.632813 997.261719 74.546875 997.261719 71.242188 C 997.261719 68.503906 998.027344 65.519531 999.566406 62.292969 C 1000.78125 60.28125 1002.308594 58.828125 1004.179688 57.941406 C 1006.039063 56.894531 1008.21875 56.371094 1010.730469 56.371094 C 1015.578125 56.371094 1019.339844 57.941406 1022.011719 61.085938 C 1024.679688 64.230469 1026.019531 67.535156 1026.019531 71 C 1026.019531 73.984375 1025.269531 76.542969 1023.769531 78.679688 Z M 1024.199219 52.320313 C 1020.390625 50.023438 1016.148438 48.871094 1011.460938 48.871094 C 1007.898438 48.871094 1004.460938 49.640625 1001.140625 51.171875 C 997.824219 52.945313 994.652344 55.605469 991.617188 59.152344 C 988.585938 62.699219 987.066406 67.535156 987.066406 73.660156 C 987.066406 78.09375 988.078125 82.144531 990.101563 85.8125 C 992.121094 89.480469 994.792969 92.363281 998.109375 94.457031 C 1002.070313 97.039063 1006.441406 98.328125 1011.210938 98.328125 C 1018.738281 98.328125 1024.640625 95.710938 1028.929688 90.46875 C 1033.21875 85.230469 1035.359375 79.546875 1035.359375 73.417969 C 1035.359375 69.226563 1034.449219 65.238281 1032.628906 61.449219 C 1030.808594 57.660156 1028 54.617188 1024.199219 52.320313 "/>
<path style=" stroke:none;fill-rule:nonzero;fill:rgb(0%,0%,0%);fill-opacity:1;" d="M 1080.921875 60.722656 C 1082.339844 60.882813 1083.730469 61.082031 1085.109375 61.324219 C 1087.941406 61.964844 1090.121094 63.210938 1091.660156 65.058594 C 1093.359375 66.90625 1094.410156 68.832031 1094.808594 70.839844 C 1095.378906 72.847656 1095.660156 74.253906 1095.660156 75.054688 L 1095.660156 78.304688 C 1095.660156 82.324219 1094.761719 85.515625 1092.949219 87.882813 C 1091.148438 90.253906 1088.800781 91.433594 1085.910156 91.433594 C 1083.011719 91.433594 1081.109375 90.304688 1080.179688 88.046875 C 1079.261719 85.785156 1078.800781 82.078125 1078.800781 76.925781 L 1069.210938 76.925781 C 1069.210938 81.445313 1068.609375 84.992188 1067.390625 87.570313 C 1066.179688 90.148438 1064.160156 91.433594 1061.328125 91.433594 C 1058.898438 91.433594 1057.121094 90.769531 1055.988281 89.441406 C 1054.851563 88.109375 1054.289063 86.355469 1054.289063 84.179688 L 1054.289063 82.003906 L 1050.441406 82.003906 L 1048.460938 81.761719 L 1068.480469 61.207031 L 1071.761719 60.480469 L 1076.25 60.480469 C 1077.949219 60.480469 1079.511719 60.5625 1080.921875 60.722656 Z M 1057.140625 51.957031 C 1056.128906 50.707031 1054.730469 50.082031 1052.949219 50.082031 L 1052.230469 50.082031 L 1051.25 50.203125 C 1052.058594 48.429688 1052.75 47.179688 1053.320313 46.453125 C 1054.289063 45.488281 1055.378906 44.882813 1056.589844 44.640625 C 1057.730469 44.238281 1059.019531 44.035156 1060.480469 44.035156 C 1062.011719 44.035156 1063.328125 44.222656 1064.421875 44.597656 C 1065.511719 44.972656 1066.300781 45.488281 1066.789063 46.152344 C 1067.429688 46.816406 1067.761719 47.523438 1067.761719 48.269531 L 1064.71875 51.351563 L 1062.171875 54.3125 L 1059.871094 57.578125 L 1057.558594 61.207031 C 1058.289063 59.996094 1058.660156 58.546875 1058.660156 56.851563 C 1058.660156 54.839844 1058.148438 53.207031 1057.140625 51.957031 Z M 1132.429688 115.136719 C 1132.03125 116.585938 1131.539063 117.796875 1130.96875 118.761719 C 1129.601563 120.859375 1126.96875 121.90625 1123.089844 121.90625 C 1119.199219 121.90625 1116.25 121.15625 1114.230469 119.667969 C 1112.210938 118.171875 1111.191406 116.335938 1111.191406 114.15625 C 1111.359375 112.785156 1111.800781 111.492188 1112.53125 110.28125 C 1113.261719 109.070313 1114.351563 108.222656 1115.808594 107.738281 L 1115.808594 105.625 C 1118.460938 104.488281 1121.371094 102.792969 1124.539063 100.515625 C 1128.910156 97.378906 1131.480469 93.011719 1132.25 87.417969 C 1133.019531 81.824219 1133.398438 78.222656 1133.398438 76.613281 L 1133.398438 72.871094 L 1132.800781 65.386719 C 1132.550781 64.101563 1132.148438 62.230469 1131.578125 59.773438 C 1131.019531 57.320313 1130.488281 55.328125 1130.011719 53.796875 C 1128.558594 48.808594 1125.039063 44.382813 1119.46875 40.519531 C 1113.898438 36.65625 1107.199219 34.726563 1099.371094 34.726563 C 1095.980469 34.726563 1093.121094 34.882813 1090.78125 35.203125 C 1088.441406 35.519531 1086.378906 35.992188 1084.601563 36.628906 C 1081.050781 37.894531 1077.820313 39.601563 1074.921875 41.738281 C 1074.269531 40.8125 1073.421875 40.011719 1072.371094 39.335938 C 1071.558594 38.578125 1070.589844 37.988281 1069.460938 37.566406 C 1068.730469 37.0625 1068 36.726563 1067.269531 36.554688 L 1065.691406 36.175781 C 1065.289063 36.175781 1063.671875 36.175781 1060.839844 36.175781 C 1057.441406 36.175781 1054.191406 37.125 1051.070313 39.019531 C 1047.960938 40.914063 1045.921875 42.847656 1044.941406 44.820313 C 1043.96875 46.796875 1043.371094 48.390625 1043.128906 49.597656 L 1042.761719 53.828125 C 1042.761719 55.925781 1043.210938 58.105469 1044.101563 60.359375 C 1045.148438 62.617188 1047.261719 63.746094 1050.421875 63.746094 C 1052.769531 63.746094 1055.078125 62.828125 1057.359375 60.996094 L 1042.070313 79.140625 L 1042.03125 88.050781 L 1047.859375 88.050781 C 1047.050781 90.132813 1046.640625 92.257813 1046.640625 94.417969 C 1046.640625 98.265625 1047.820313 101.472656 1050.160156 104.035156 C 1052.511719 106.597656 1055.660156 107.878906 1059.628906 107.878906 L 1061.328125 107.878906 C 1064.96875 107.878906 1067.640625 107.054688 1069.328125 105.402344 C 1071.191406 103.832031 1072.609375 101.472656 1073.578125 98.328125 L 1075.28125 102.628906 C 1076.089844 103.824219 1077.019531 104.859375 1078.070313 105.734375 C 1079.851563 106.929688 1081.179688 107.664063 1082.070313 107.945313 C 1082.960938 108.222656 1084.378906 108.363281 1086.320313 108.363281 C 1089.480469 108.363281 1092.328125 107.617188 1094.878906 106.128906 C 1097.421875 104.636719 1099.609375 102.882813 1101.429688 100.867188 C 1103.25 98.851563 1104.519531 96.675781 1105.25 94.335938 C 1105.410156 93.773438 1105.738281 92.886719 1106.21875 91.675781 C 1106.378906 91.03125 1106.539063 90.148438 1106.710938 89.015625 C 1106.871094 87.890625 1107.070313 86.839844 1107.308594 85.871094 C 1107.308594 84.664063 1107.308594 83.414063 1107.308594 82.125 C 1107.308594 80.835938 1106.660156 75.878906 1105.371094 67.253906 C 1104.078125 58.628906 1095.421875 54.3125 1079.398438 54.3125 C 1080.539063 53.226563 1082.429688 52.433594 1085.078125 51.929688 C 1087.71875 51.421875 1091.121094 51.171875 1095.269531 51.171875 L 1097.828125 51.171875 L 1103.078125 51.652344 C 1105.769531 52.21875 1108.328125 53.226563 1110.769531 54.675781 C 1113.210938 56.128906 1115.289063 58.304688 1117 61.207031 C 1118.871094 64.109375 1119.921875 66.566406 1120.171875 68.582031 L 1121.019531 73.660156 L 1121.019531 77.773438 C 1121.019531 80.996094 1120.5 84.300781 1119.449219 87.6875 C 1118.230469 90.992188 1116.628906 93.472656 1114.648438 95.121094 C 1112.671875 96.777344 1111.03125 97.804688 1109.738281 98.207031 C 1108.441406 98.609375 1107.269531 98.8125 1106.21875 98.8125 L 1103.191406 98.933594 L 1103.191406 107.878906 L 1103.390625 107.863281 C 1103.261719 108.136719 1103.128906 108.414063 1103 108.703125 C 1101.828125 111.445313 1101.25 114.109375 1101.25 116.691406 C 1101.25 119.433594 1101.890625 121.996094 1103.191406 124.378906 C 1104.480469 126.757813 1106.671875 128.933594 1109.738281 130.914063 C 1112.808594 132.886719 1116.699219 133.878906 1121.390625 133.878906 C 1126.078125 133.878906 1130 132.667969 1133.160156 130.25 C 1136.308594 127.832031 1138.441406 125.148438 1139.53125 122.210938 C 1140.621094 119.265625 1141.171875 115.136719 1141.171875 109.816406 L 1132.910156 109.816406 L 1132.429688 115.136719 "/>
<path style=" stroke:none;fill-rule:nonzero;fill:rgb(0%,0%,0%);fill-opacity:1;" d="M 1157.679688 49.113281 C 1158.660156 48.953125 1160.011719 48.871094 1161.730469 48.871094 C 1165.578125 48.871094 1169.019531 49.539063 1172.050781 50.867188 C 1175.078125 52.199219 1176.601563 54.070313 1176.601563 56.488281 L 1157.179688 56.488281 C 1157.828125 56.25 1158.148438 55.402344 1158.148438 53.949219 L 1157.179688 51.171875 C 1156.699219 50.445313 1156.128906 49.960938 1155.480469 49.71875 C 1155.96875 49.476563 1156.699219 49.277344 1157.679688 49.113281 Z M 1214.390625 35.476563 C 1210.46875 29.019531 1206.519531 24.640625 1202.558594 22.339844 C 1198.601563 20.039063 1194.308594 18.40625 1189.699219 17.4375 C 1187.191406 16.871094 1184.730469 16.46875 1182.300781 16.226563 C 1179.871094 15.984375 1177.359375 15.863281 1174.78125 15.863281 C 1168.058594 15.863281 1162.261719 16.871094 1157.359375 18.886719 C 1152.46875 20.902344 1148.488281 23.703125 1145.410156 27.289063 C 1142.339844 30.878906 1140.441406 34.121094 1139.710938 37.023438 L 1150.269531 37.023438 C 1152.371094 33.878906 1154.070313 31.785156 1155.359375 30.734375 C 1156.488281 29.609375 1158.800781 28.417969 1162.28125 27.167969 C 1165.761719 25.917969 1169.679688 25.292969 1174.050781 25.292969 L 1181.210938 25.777344 L 1188.121094 27.234375 C 1192.730469 28.6875 1196.5 30.746094 1199.410156 33.410156 C 1202.320313 36.074219 1204.769531 39.730469 1206.75 44.375 C 1208.730469 49.019531 1209.71875 53.761719 1209.71875 58.605469 L 1209.71875 59.9375 L 1208.75 69.265625 C 1207.941406 75.082031 1204.300781 80.269531 1197.828125 84.835938 C 1191.359375 89.398438 1184.441406 91.675781 1177.078125 91.675781 C 1168.671875 91.675781 1162.199219 90.058594 1157.671875 86.820313 C 1153.140625 83.582031 1150.871094 79.167969 1150.871094 73.582031 C 1150.871094 70.503906 1151.898438 68.195313 1153.96875 66.660156 C 1156.03125 65.121094 1158.761719 64.351563 1162.160156 64.351563 L 1186.910156 64.351563 L 1187.03125 62.898438 L 1187.148438 61.085938 C 1187.148438 57.863281 1186.441406 54.839844 1185.03125 52.015625 C 1183.609375 49.195313 1181.648438 47.058594 1179.140625 45.609375 C 1176.71875 43.996094 1174.449219 42.949219 1172.351563 42.464844 C 1170.96875 41.902344 1169.960938 41.617188 1169.320313 41.617188 L 1166.769531 41.496094 L 1162.890625 41.011719 L 1160.941406 41.011719 C 1156.25 41.011719 1152.648438 41.457031 1150.140625 42.34375 C 1147.640625 43.390625 1145.53125 44.882813 1143.828125 46.816406 C 1142.140625 48.75 1141.289063 50.769531 1141.289063 52.863281 C 1141.289063 55.203125 1141.851563 57.054688 1142.988281 58.425781 C 1144.28125 59.714844 1145.898438 60.359375 1147.839844 60.359375 C 1144.851563 60.925781 1142.339844 63.160156 1140.320313 67.070313 C 1138.289063 70.980469 1137.28125 74.546875 1137.28125 77.773438 C 1137.28125 85.351563 1139.550781 91.578125 1144.078125 96.453125 C 1148.609375 101.332031 1153.699219 104.492188 1159.371094 105.945313 C 1165.03125 107.394531 1170.328125 108.121094 1175.261719 108.121094 L 1179.628906 108.121094 L 1184.601563 107.636719 C 1188.488281 106.992188 1191.839844 106.226563 1194.679688 105.335938 C 1197.828125 104.207031 1201.328125 102.109375 1205.171875 99.042969 C 1209.011719 95.976563 1212.191406 92.324219 1214.699219 88.085938 C 1217.199219 83.847656 1218.761719 79.550781 1219.371094 75.191406 C 1219.96875 70.832031 1220.28125 64.777344 1220.28125 57.027344 C 1220.28125 49.117188 1218.320313 41.933594 1214.390625 35.476563 "/>
</g>
</svg>
